<svg width="44" height="44" viewBox="0 0 44 44" fill="none" xmlns="http://www.w3.org/2000/svg">
<path d="M40 4H36V1C36 0.4 35.6 0 35 0C34.4 0 34 0.4 34 1V4H10V1C10 0.4 9.6 0 9 0C8.4 0 8 0.4 8 1V4H4C1.8 4 0 5.8 0 8V14V16V40C0 42.2 1.8 44 4 44H40C42.2 44 44 42.2 44 40V16V14V8C44 5.8 42.2 4 40 4ZM42 40C42 41.1 41.1 42 40 42H4C2.9 42 2 41.1 2 40V16H42V40ZM42 14H2V8C2 6.9 2.9 6 4 6H8V9C8 9.6 8.4 10 9 10C9.6 10 10 9.6 10 9V6H34V9C34 9.6 34.4 10 35 10C35.6 10 36 9.6 36 9V6H40C41.1 6 42 6.9 42 8V14ZM27 20H23V24H27V20ZM27 27H23V31H27V27ZM27 34H23V38H27V34ZM33 20H29V24H33V20ZM39 20H35V24H39V20ZM21 20H17V24H21V20ZM39 27H35V31H39V27ZM33 27H29V31H33V27ZM9 20H5V24H9V20ZM9 27H5V31H9V27ZM15 34H11V38H15V34ZM9 34H5V38H9V34ZM15 20H11V24H15V20ZM21 34H17V38H21V34ZM15 27H11V31H15V27ZM21 27H17V31H21V27Z" fill="#47A4FA"/>
</svg>
