<svg width="45" height="44" viewBox="0 0 45 44" fill="none" xmlns="http://www.w3.org/2000/svg">
<path d="M40.3 6H4.30005C2.10005 6 0.300049 7.8 0.300049 10V34C0.300049 36.2 2.10005 38 4.30005 38H40.3C42.5 38 44.3 36.2 44.3 34V10C44.3 7.8 42.5 6 40.3 6ZM4.30005 8H40.3C40.5 8 40.8 8.0001 41 8.1001L23.7 25.3999C23.3 25.7999 22.9 26 22.3 26C21.7 26 21.3 25.7999 20.9 25.3999L3.60004 8.1001C3.90004 8.1001 4.10005 8 4.30005 8ZM2.30005 34V10C2.30005 9.9 2.30005 9.8002 2.30005 9.7002L14.6 22L2.30005 34.2998C2.40005 34.2998 2.30005 34.2 2.30005 34ZM40.3 36H4.30005C4.10005 36 3.80004 35.9999 3.60004 35.8999L16.1 23.3999L19.5 26.7998C20.3 27.5998 21.3 27.8999 22.3 27.8999C23.3 27.8999 24.3 27.4998 25.1 26.7998L28.5 23.3999L41 35.8999C40.8 35.9999 40.6 36 40.3 36ZM42.3 34C42.3 34.1 42.3 34.1998 42.3 34.2998L30 22L42.3 9.7002C42.3 9.8002 42.3 9.9 42.3 10V34Z" fill="#47A4FA"/>
</svg>
