<svg width="44" height="44" viewBox="0 0 44 44" fill="none" xmlns="http://www.w3.org/2000/svg">
<path d="M43.9 10.5C43.9 4.7 38.9 0 34.9 0C34.1 0 33.3 0.299902 32.8 0.899902C32.6 1.0999 32.5 1.1999 32.4 1.3999L25.8 9.8999C25.3 10.3999 24.9 11.2 24.9 12C24.9 12.7 25.1 13.2998 25.5 13.7998L27.9 16.2002C28.3 16.6002 28.6 17.1002 28.6 17.7002C28.6 18.4002 28.3 18.9998 27.7 19.2998C27.7 19.2998 27.7 19.2998 27.8 19.2998C25.4 22.5998 22.6 25.4998 19.3 27.7998C19.3 27.7998 19.3 27.8002 19.3 27.7002C18.9 28.2002 18.3 28.6001 17.6 28.6001C17 28.6001 16.4 28.2999 16.1 27.8999L13.8 25.5C13.3 25.1 12.7 24.8999 12 24.8999C11.2 24.8999 10.4 25.1998 9.89999 25.7998L1.39999 32.3999C1.19999 32.4999 0.999994 32.6998 0.899994 32.7998C0.399994 33.2998 0 34.0999 0 34.8999C0 38.8999 4.7 43.8999 10.5 43.8999C12.1 43.8999 13.6 43.4999 15 42.8999C27 36.8999 37 26.8999 43 14.8999C43.5 13.6999 43.9 12.1 43.9 10.5ZM41.1 14.2002C41 14.3002 41 14.4 41 14.5C35.2 25.9 25.8 35.3001 14.4 41.1001C14.3 41.1001 14.2 41.2002 14.1 41.2002C12.9 41.7002 11.7 42 10.5 42C5.7 42 2 37.8 2 35C2 34.6 2.19999 34.3998 2.29999 34.2998C2.29999 34.2998 2.4 34.2002 2.5 34.2002C2.6 34.2002 2.59998 34.1001 2.69998 34.1001L11.2 27.5C11.3 27.4 11.3 27.3998 11.4 27.2998C11.5 27.1998 11.7 27 12.1 27C12.3 27 12.4 27.0001 12.6 27.1001L14.8 29.2998C15.6 30.0998 16.6 30.6001 17.7 30.6001C18.7 30.6001 19.7 30.2 20.5 29.5L20.6 29.3999C24 26.8999 27 23.8999 29.5 20.3999C29.5 20.3999 29.5 20.2998 29.6 20.2998C30.3 19.5998 30.7 18.6 30.7 17.5C30.7 16.5 30.3 15.4002 29.5 14.7002L29.4 14.6001L27.1 12.3999C27 12.1999 27 12.0999 27 11.8999C27 11.4999 27.2 11.3002 27.3 11.2002C27.4 11.1002 27.4 11.1 27.5 11L34.1 2.5C34.1 2.4 34.2 2.3998 34.2 2.2998C34.3 2.1998 34.3 2.1001 34.3 2.1001C34.4 2.0001 34.6 1.7998 35 1.7998C35.1 1.7998 35.1 1.7998 35.2 1.7998C38 1.9998 42 5.5998 42 10.2998C41.9 11.7998 41.6 13.0002 41.1 14.2002Z" fill="#47A4FA"/>
</svg>
