<svg width="194" height="64" viewBox="0 0 194 64" fill="none" xmlns="http://www.w3.org/2000/svg">
<path d="M59.2576 36.9004H47.9575L55.8575 2.7002C56.1575 1.2002 55.2576 0 53.7576 0H37.0575H16.9575C15.4575 0 13.9575 1.2002 13.5575 2.7002L8.65746 24.0996C8.35746 25.5996 9.25756 26.7998 10.7576 26.7998H22.0575L19.7576 37H5.65746L3.65746 45.5H12.3575H23.6575C25.1575 45.5 26.6575 44.2998 27.0575 42.7998L32.0575 21C32.3575 19.5 31.4575 18.2998 29.9575 18.2998H18.6575L20.8575 8.59961H34.9575H45.6575L37.1575 45.5H51.2576L49.0575 55.2002H10.1575L12.3575 45.5H3.65746L0.0574816 61.0996C-0.242518 62.5996 0.657457 63.7998 2.15746 63.7998H53.0575C54.5575 63.7998 56.0575 62.5996 56.4575 61.0996L61.3575 39.7002C61.7575 38.1002 60.7576 36.9004 59.2576 36.9004Z" fill="url(#paint0_linear_104_608)"/>
<path opacity="0.55" d="M12.4575 45.4004H3.65747L1.45752 55.2002H10.1575L12.4575 45.4004Z" fill="url(#paint1_linear_104_608)"/>
<path d="M81.5575 31.4004C82.9575 31.9004 84.6575 32.2002 86.6575 32.2002C89.8575 32.2002 92.3576 31.6004 94.2576 30.4004C96.1576 29.2004 97.3575 27.5002 97.8575 25.2002C97.9575 24.7002 98.0575 24.1996 98.0575 23.5996C98.0575 22.0996 97.4575 20.8004 96.3575 19.9004C95.1575 19.0004 93.3575 18.2998 90.8575 17.7998C89.2575 17.4998 88.1575 17.0998 87.5575 16.7998C86.9575 16.4998 86.6575 16.1 86.6575 15.5C86.6575 15.3 86.6575 15.1996 86.6575 15.0996C86.8575 14.4996 87.1576 13.9996 87.7576 13.5996C88.3576 13.2996 89.1575 13.0996 90.0575 13.0996C90.8575 13.0996 91.4575 13.2996 91.9575 13.5996C92.4575 13.8996 92.6576 14.2998 92.7576 14.7998C92.9576 15.1998 93.2576 15.4004 93.7576 15.4004H98.4575C98.6575 15.4004 98.8575 15.3002 98.9575 15.2002C99.0575 15.1002 99.1576 14.9002 99.2576 14.7002C99.2576 14.4002 99.3575 14.1996 99.3575 14.0996C99.3575 13.1996 98.9576 12.1998 98.2576 11.2998C97.5576 10.3998 96.4575 9.6 95.1575 9C93.8575 8.4 92.3575 8.09961 90.6575 8.09961C87.8575 8.09961 85.5576 8.70039 83.7576 9.90039C81.9576 11.1004 80.8575 12.6998 80.4575 14.7998C80.3575 15.3998 80.2576 15.9004 80.2576 16.4004C80.2576 19.4004 82.4575 21.3998 86.8575 22.2998C88.6575 22.6998 89.8575 23.1004 90.5575 23.4004C91.2575 23.7004 91.5575 24.1002 91.5575 24.7002C91.5575 24.9002 91.5575 24.9996 91.5575 25.0996C91.3575 25.6996 90.9576 26.1996 90.2576 26.5996C89.5576 26.9996 88.5575 27.0996 87.3575 27.0996C86.3575 27.0996 85.6575 26.8996 85.1575 26.5996C84.6575 26.2996 84.2575 25.7998 84.0575 25.2998C83.8575 25.0998 83.7575 24.8998 83.6575 24.7998C83.5575 24.6998 83.2575 24.7002 83.0575 24.7002H78.5575C78.3575 24.7002 78.1575 24.8004 78.0575 24.9004C77.8575 25.0004 77.7576 25.2004 77.7576 25.4004C77.7576 25.8004 77.6575 26.0002 77.6575 26.2002C77.6575 27.3002 78.0576 28.3002 78.7576 29.2002C79.0576 30.1002 80.1575 30.8004 81.5575 31.4004Z" fill="#F2F2F2"/>
<path d="M99.7576 31.7998H103.958C104.158 31.7998 104.357 31.6996 104.557 31.5996C104.757 31.3996 104.858 31.2 104.958 31L107.557 18.7998L109.858 25.5C110.058 26 110.358 26.2998 110.858 26.2998H112.657C113.157 26.2998 113.558 26 113.958 25.5L118.858 19.0996L116.358 31C116.358 31.2 116.358 31.3996 116.458 31.5996C116.558 31.7996 116.757 31.7998 117.057 31.7998H121.258C121.458 31.7998 121.758 31.6996 121.858 31.5996C122.058 31.3996 122.157 31.2 122.157 31L126.758 9.40039C126.758 9.20039 126.757 8.8998 126.657 8.7998C126.557 8.5998 126.357 8.59961 126.057 8.59961H122.258C121.958 8.59961 121.658 8.6998 121.458 8.7998C121.258 8.9998 121.058 9.0998 120.958 9.2998L113.057 19.5996L109.458 9.2998C109.358 9.0998 109.257 8.8998 109.057 8.7998C108.857 8.6998 108.658 8.59961 108.358 8.59961H104.557C104.357 8.59961 104.058 8.6998 103.858 8.7998C103.658 8.9998 103.558 9.20039 103.458 9.40039L98.8575 31C98.8575 31.2 98.8575 31.3996 98.9575 31.5996C99.3575 31.7996 99.5576 31.7998 99.7576 31.7998Z" fill="#F2F2F2"/>
<path d="M143.157 8.5H137.758C137.158 8.5 136.558 8.8 136.258 9.5L123.958 30.9004C123.858 31.0004 123.858 31.1998 123.858 31.2998C123.858 31.4998 123.957 31.5998 124.057 31.7998C124.157 31.8998 124.357 32 124.557 32H129.157C129.657 32 130.158 31.7998 130.458 31.2998L132.358 28.0996H141.057L141.557 31.2998C141.657 31.7998 141.957 32.0996 142.557 32.0996H146.758C146.958 32.0996 147.158 31.9998 147.358 31.7998C147.558 31.5998 147.557 31.3996 147.557 31.0996L144.358 9.7002C144.158 8.8002 143.757 8.5 143.157 8.5ZM134.657 22.9004L139.458 14.4004L140.657 22.9004H134.657Z" fill="#F2F2F2"/>
<path d="M169.858 10C168.458 9 166.558 8.5 163.958 8.5H154.758C154.558 8.5 154.257 8.6002 154.057 8.7002C153.857 8.9002 153.757 9.0998 153.657 9.2998L149.057 30.9004C149.057 31.1004 149.057 31.3 149.157 31.5C149.257 31.7 149.457 31.7002 149.657 31.7002H154.258C154.458 31.7002 154.758 31.6 154.958 31.5C155.158 31.3 155.258 31.1004 155.358 30.9004L156.958 23.5996H160.157L162.258 30.7998C162.458 31.3998 162.758 31.7002 163.458 31.7002H168.157C168.357 31.7002 168.557 31.6 168.657 31.5C168.857 31.4 168.958 31.2 168.958 31C168.958 30.9 168.958 30.7996 168.958 30.5996L166.157 22.5C167.557 21.9 168.757 21.1 169.657 20C170.657 18.9 171.257 17.6 171.557 16C171.657 15.4 171.758 14.7002 171.758 14.2002C171.958 12.4002 171.258 11 169.858 10ZM165.258 16.0996C165.058 16.8996 164.657 17.5996 164.057 18.0996C163.457 18.5996 162.658 18.7998 161.758 18.7998H158.057L159.258 13.2998H162.958C163.758 13.2998 164.358 13.4998 164.758 13.7998C165.158 14.1998 165.358 14.6998 165.358 15.2998C165.358 15.6998 165.358 15.8996 165.258 16.0996Z" fill="#F2F2F2"/>
<path d="M193.858 8.7998C193.758 8.5998 193.558 8.59961 193.258 8.59961H175.157C174.957 8.59961 174.658 8.6998 174.458 8.7998C174.258 8.9998 174.157 9.20039 174.057 9.40039L173.258 13.0996C173.258 13.2996 173.258 13.5002 173.358 13.7002C173.458 13.9002 173.658 13.9004 173.958 13.9004H179.858L176.258 31C176.258 31.2 176.258 31.3996 176.358 31.5996C176.458 31.7996 176.658 31.7998 176.958 31.7998H181.557C181.757 31.7998 182.057 31.6996 182.157 31.5996C182.357 31.3996 182.458 31.2 182.458 31L186.157 13.9004H192.057C192.257 13.9004 192.557 13.8002 192.657 13.7002C192.857 13.5002 192.958 13.2996 192.958 13.0996L193.758 9.40039C193.958 9.10039 193.958 8.8998 193.858 8.7998Z" fill="#F2F2F2"/>
<path d="M88.6575 40.9004C87.2575 40.3004 85.7575 40 84.0575 40C80.8575 40 78.2575 40.7998 76.3575 42.2998C74.4575 43.7998 73.0575 46.0996 72.3575 49.0996C71.9575 50.7996 71.4575 52.7004 71.1575 54.9004C71.0575 55.6004 70.9575 56.2002 70.9575 56.7002C70.9575 58.3002 71.3575 59.6002 72.1575 60.7002C72.9575 61.8002 74.0575 62.6002 75.3575 63.2002C76.7575 63.8002 78.2575 64 79.9575 64C83.1575 64 85.7575 63.1998 87.6575 61.7998C89.5575 60.2998 90.9575 58 91.6575 55C92.1575 53 92.5575 51.0002 92.8575 49.2002C92.9575 48.5002 93.0575 48 93.0575 47.5C93.0575 45.9 92.6575 44.6 91.8575 43.5C91.1575 42.3 90.0575 41.5004 88.6575 40.9004ZM86.4575 49.2998C86.1575 50.8998 85.7576 52.6998 85.2576 54.7998C84.8576 56.1998 84.3575 57.3 83.4575 58C82.6575 58.7 81.6575 59 80.4575 59C78.4575 59 77.3575 57.9996 77.3575 56.0996C77.3575 55.5996 77.3575 55.2002 77.4575 54.7002C77.8575 52.5002 78.2575 50.6002 78.6575 49.2002C79.0575 47.8002 79.5575 46.7 80.4575 46C81.2575 45.3 82.2575 45 83.4575 45C85.4575 45 86.4575 46.0004 86.4575 47.9004C86.6575 48.4004 86.5575 48.7998 86.4575 49.2998Z" fill="#F2F2F2"/>
<path d="M117.557 40.5996C117.457 40.3996 117.257 40.4004 117.057 40.4004H112.858C112.658 40.4004 112.358 40.4996 112.258 40.5996C112.058 40.7996 111.958 41.0002 111.958 41.2002L109.358 53.5L104.157 41C104.057 40.6 103.657 40.4004 103.157 40.4004H99.4575C99.2575 40.4004 98.9575 40.4996 98.8575 40.5996C98.6575 40.7996 98.5575 41.0002 98.5575 41.2002L93.9575 62.7998C93.9575 62.9998 93.9575 63.2004 94.0575 63.4004C94.1575 63.6004 94.3575 63.5996 94.6575 63.5996H98.8575C99.0575 63.5996 99.2575 63.5004 99.4575 63.4004C99.6575 63.2004 99.7575 62.9998 99.8575 62.7998L102.358 51L107.657 63C107.757 63.2 107.857 63.3004 108.057 63.4004C108.157 63.5004 108.458 63.5996 108.758 63.5996H112.458C112.658 63.5996 112.957 63.5004 113.057 63.4004C113.257 63.2004 113.358 62.9998 113.358 62.7998L117.958 41.2002C117.658 41.0002 117.657 40.7996 117.557 40.5996Z" fill="#F2F2F2"/>
<path d="M138.157 40.2998H122.458C122.258 40.2998 121.958 40.4 121.758 40.5C121.558 40.7 121.458 40.8996 121.358 41.0996L116.758 62.7002C116.758 62.9002 116.758 63.0998 116.858 63.2998C116.958 63.4998 117.158 63.5 117.458 63.5H133.458C133.658 63.5 133.857 63.3998 134.057 63.2998C134.257 63.0998 134.358 62.9002 134.458 62.7002L135.157 59.4004C135.157 59.2004 135.157 58.9998 135.057 58.7998C134.957 58.5998 134.757 58.5996 134.557 58.5996H123.758L124.657 54.2998H134.458C134.658 54.2998 134.957 54.1996 135.157 54.0996C135.357 53.8996 135.457 53.7 135.557 53.5L136.157 50.5C136.157 50.3 136.157 50.0004 136.057 49.9004C135.957 49.7004 135.757 49.7002 135.557 49.7002H125.758L126.657 45.5H137.157C137.357 45.5 137.658 45.3998 137.858 45.2998C138.058 45.0998 138.158 44.9002 138.258 44.7002L138.958 41.4004C138.958 41.2004 138.958 40.8998 138.858 40.7998C138.558 40.3998 138.357 40.2998 138.157 40.2998Z" fill="#F2F2F2"/>
<defs>
<linearGradient id="paint0_linear_104_608" x1="57.134" y1="60.9974" x2="5.84939" y2="9.71267" gradientUnits="userSpaceOnUse">
<stop stop-color="#F64F59"/>
<stop offset="0.4" stop-color="#C471ED"/>
<stop offset="1" stop-color="#12C2E9"/>
</linearGradient>
<linearGradient id="paint1_linear_104_608" x1="6.94322" y1="55.1564" x2="6.94322" y2="45.4272" gradientUnits="userSpaceOnUse">
<stop stop-opacity="0"/>
<stop offset="0.9104" stop-opacity="0.9104"/>
<stop offset="1"/>
</linearGradient>
</defs>
</svg>
