<svg width="114" height="80" viewBox="0 0 114 80" fill="none" xmlns="http://www.w3.org/2000/svg">
<path d="M36.2 2.3999H35.2V26.0999H36.2V2.3999Z" fill="#F2F2F2"/>
<path d="M44.7 2.3999H43.7V22.8999H44.7V2.3999Z" fill="#F2F2F2"/>
<path d="M53.1 2.3999H52.1V22.8999H53.1V2.3999Z" fill="#F2F2F2"/>
<path d="M61.6 2.3999H60.6V22.8999H61.6V2.3999Z" fill="#F2F2F2"/>
<path d="M70 2.3999H69V22.8999H70V2.3999Z" fill="#F2F2F2"/>
<path d="M78.4 2.3999H77.4V26.0999H78.4V2.3999Z" fill="#F2F2F2"/>
<path d="M74.9 23.6001H38.9V24.6001H74.9V23.6001Z" fill="#F2F2F2"/>
<path d="M76.9001 25.2002H36.8V26.2002H76.9001V25.2002Z" fill="#F2F2F2"/>
<path d="M78.3999 26.7002H35.2V27.7002H78.3999V26.7002Z" fill="#F2F2F2"/>
<path d="M38.2 14.9999H39.4999V22.8999H40.2999V14.9999H41.5999V22.8999H42.9999V2.3999H36.7V24.4999H38.0999V14.9999H38.2Z" fill="#F2F2F2"/>
<path d="M46.7 14.9999H47.9999V22.8999H48.7999V14.9999H50.0999V22.8999H51.4999V2.3999H45.2V22.8999H46.5999V14.9999H46.7Z" fill="#F2F2F2"/>
<path d="M55.1 14.9999H56.4V22.8999H57.2V14.9999H58.5V22.8999H59.9V2.3999H53.6V22.8999H55V14.9999H55.1Z" fill="#F2F2F2"/>
<path d="M63.6 14.9999H64.9V22.8999H65.7V14.9999H67V22.8999H68.4V2.3999H62.1V22.8999H63.5V14.9999H63.6Z" fill="#F2F2F2"/>
<path d="M72 14.9999H73.3V22.8999H74.1V14.9999H75.4V24.4999H76.8V2.3999H70.5V22.8999H71.9V14.9999H72Z" fill="#F2F2F2"/>
<path d="M21.5 27.7H22.9V7.9H24.2V27.7H25V7.9H26.3V27.7H27.7V0H21.4V27.7H21.5Z" fill="#F2F2F2"/>
<path d="M28.4001 27.6999H29.8V11.9999H31.1001V27.6999H31.9001V11.9999H33.2001V27.6999H34.6001V7.8999H28.3V27.6999H28.4001Z" fill="#F2F2F2"/>
<path d="M0 7.8999V27.6999H1.39999V11.9999H2.7V27.6999H3.2H3.5V11.9999H4.8V27.6999H5.3H6.2V11.9999H7.5V27.6999H8.3V11.9999H9.60001V27.6999H10.8H10.9H11V11.9999H12.3V27.6999H13.1V11.9999H14.4V27.6999H15.8V11.9999H17.1V27.6999H17.9V11.9999H19.2V27.6999H20.6V7.8999H0Z" fill="#F2F2F2"/>
<path d="M85.9001 27.7H87.3V7.9H88.6001V27.7H89.4001V7.9H90.7001V27.7H92.1001V0H85.8V27.7H85.9001Z" fill="#F2F2F2"/>
<path d="M79 27.6999H80.4V11.9999H81.7V27.6999H82.5V11.9999H83.8V27.6999H85.2V7.8999H79V27.6999Z" fill="#F2F2F2"/>
<path d="M92.8 7.8999V27.6999H94.2001V11.9999H95.5001V27.6999H96.3V11.9999H97.6001V27.6999H99.0001V11.9999H100.3V27.6999H101.1V11.9999H102.4V27.6999H102.5H102.6H103.8V11.9999H105.1V27.6999H105.9V11.9999H107.2V27.6999H108.1H108.6V11.9999H109.9V27.6999H110.2H110.7V11.9999H112V27.6999H113.4V7.8999H92.8Z" fill="#F2F2F2"/>
<path d="M113.7 30.2002H0.0999756V32.6002H113.8V30.2002H113.7Z" fill="#203A8F"/>
<path d="M113.7 27.8999H0.0999756V30.2999H113.8V27.8999H113.7Z" fill="#F2F2F2"/>
<path d="M113.7 32.6001H0.0999756V35.0001H113.8V32.6001H113.7Z" fill="#CD1F1C"/>
<path d="M19.4 45.4004L11 59.8004L2.5 45.4004H0V65.9004H2.8V51.1004L10.2 63.5004H11.5L19 51.0004V65.9004H21.8V45.4004H19.4ZM27.4 45.4004V65.9004H30.3V48.0004H38.1V45.5004H27.4V45.4004ZM57.9 45.4004L45.8 61.2004V45.4004H42.9V65.9004H45.6L57.7 50.1004V65.9004H60.6V45.4004H57.9Z" fill="#F2F2F2"/>
<path d="M87.8 65.9004V45.4004H85.4L77 59.8004L68.5 45.4004H66V65.9004H68.8V51.1004L76.2 63.5004H77.5L84.9 51.1004V66.0004H87.8V65.9004Z" fill="#F2F2F2"/>
<path d="M113.8 73.1002H108.3V73.7002H110.7V79.8002H111.4V73.7002H113.8V73.1002V73.1002ZM99.8 79.3002V76.8002H103.3V76.2002H99.8V73.8002H103.7V73.2002H99.1V80.0002H103.9V79.4002H99.8V79.3002ZM94 73.1002H88.6V73.7002H91V79.8002H91.7V73.7002H94.1V73.1002H94ZM77.7 79.9002H78.4L82.7 74.3002V79.9002H83.4V73.1002H82.7L78.4 78.7002V73.1002H77.7V79.9002ZM69.9 79.9002C70.4 79.9002 70.8 79.8002 71.3 79.6002C71.7 79.4002 72.1 79.2002 72.4 78.9002L71.9 78.4002C71.6 78.7002 71.3 78.9002 71 79.0002C70.7 79.1002 70.3 79.2002 69.9 79.2002C69.4 79.2002 68.9 79.1002 68.4 78.8002C68 78.6002 67.6 78.2002 67.4 77.8002C67.2 77.4002 67 76.9002 67 76.4002C67 75.9002 67.1 75.4002 67.4 75.0002C67.6 74.6002 68 74.2002 68.4 74.0002C68.8 73.8002 69.3 73.6002 69.9 73.6002C70.3 73.6002 70.6 73.7002 71 73.8002C71.3 73.9002 71.6 74.1002 71.9 74.4002L72.4 73.9002C72.1 73.6002 71.7 73.3002 71.3 73.2002C70.9 73.0002 70.4 72.9002 69.9 73.0002C69.3 73.0002 68.6 73.1002 68.1 73.4002C67.6 73.7002 67.1 74.1002 66.8 74.6002C66.5 75.1002 66.3 75.7002 66.3 76.4002C66.3 77.0002 66.5 77.6002 66.8 78.2002C67.1 78.7002 67.5 79.1002 68.1 79.4002C68.6 79.8002 69.3 79.9002 69.9 79.9002ZM58.7 77.1002H56.9V73.7002H58.7C59.2 73.7002 59.8 73.8002 60.2 74.1002C60.4 74.3002 60.5 74.4002 60.6 74.7002C60.7 74.9002 60.7 75.2002 60.7 75.4002C60.7 75.6002 60.7 75.9002 60.6 76.1002C60.5 76.3002 60.4 76.5002 60.2 76.7002C59.8 77.0002 59.3 77.2002 58.7 77.1002ZM58.7 73.1002H56.2V79.9002H56.9V77.7002H58.7C59.4 77.7002 60.1 77.5002 60.7 77.1002C60.9 76.9002 61.1 76.6002 61.3 76.3002C61.4 76.0002 61.5 75.7002 61.5 75.4002C61.5 75.1002 61.5 74.8002 61.3 74.5002C61.2 74.2002 61 73.9002 60.7 73.7002C60.2 73.3002 59.5 73.1002 58.7 73.1002ZM46.7 79.2002V76.7002H50.2V76.1002H46.7V73.7002H50.6V73.1002H46V79.9002H50.8V79.3002L46.7 79.2002ZM37.9 79.3002H35.6V76.7002H37.9C39.1 76.7002 39.6 77.1002 39.6 78.0002C39.6 78.8002 39 79.3002 37.9 79.3002ZM35.6 73.7002H37.7C38.1 73.7002 38.5 73.8002 38.9 74.0002C39 74.1002 39.1 74.3002 39.2 74.4002C39.3 74.6002 39.3 74.7002 39.3 74.9002C39.3 75.1002 39.3 75.2002 39.2 75.4002C39.1 75.6002 39 75.7002 38.9 75.8002C38.5 76.0002 38.1 76.1002 37.7 76.1002H35.6V73.7002ZM38.9 76.4002C39.2 76.3002 39.5 76.1002 39.7 75.8002C39.9 75.5002 40 75.2002 40 74.8002C40 74.6002 40 74.3002 39.9 74.1002C39.8 73.9002 39.6 73.7002 39.4 73.5002C38.9 73.2002 38.3 73.0002 37.7 73.1002H34.9V79.9002H37.9C38.5 79.9002 39.2 79.8002 39.7 79.4002C40 79.1002 40.3 78.7002 40.3 78.2002C40.3 77.7002 40.2 77.3002 39.9 76.9002C39.7 76.6002 39.3 76.4002 38.9 76.4002ZM23 79.8002H23.7L28 74.2002V79.8002H28.7V73.1002H28L23.7 78.7002V73.1002H23V79.8002ZM16.2 73.1002V76.1002H12V73.1002H11.3V79.9002H12V76.8002H16.2V79.9002H16.9V73.1002H16.2ZM5.5 73.1002L3.10001 77.7002L0.699997 73.1002H0L2.7 78.3002L2.5 78.6002C2.4 78.8002 2.20001 79.0002 2.10001 79.1002C1.90001 79.2002 1.7 79.3002 1.5 79.3002C1.3 79.3002 1.1 79.3002 0.800003 79.2002L0.600006 79.8002C0.900006 79.9002 1.09999 80.0002 1.39999 80.0002C1.69999 80.0002 2.09999 79.9002 2.39999 79.7002C2.69999 79.5002 3 79.2002 3.2 78.8002L6.3 73.1002H5.5Z" fill="#F2F2F2"/>
<path d="M102.9 63.5002C101.8 63.5002 100.8 63.4002 99.8 63.0002C98.8 62.6002 97.9 62.0002 97.2 61.3002C96.5 60.6002 95.9 59.7002 95.5 58.7002C95.1 57.7002 94.9 56.7002 94.9 55.6002C94.9 51.1002 98.3 47.7002 102.9 47.7002C105 47.7002 107 48.5002 108.5 50.0002C110 51.5002 110.8 53.5002 110.8 55.6002C110.8 57.7002 110 59.7002 108.5 61.2002C107 62.7002 105 63.5002 102.9 63.5002ZM113.7 55.7002C113.7 49.7002 109.1 45.2002 102.9 45.2002C96.7 45.2002 92 49.7002 92 55.7002C92 61.7002 96.6 66.2002 102.9 66.2002C109.2 66.1002 113.8 61.7002 113.7 55.7002Z" fill="#F2F2F2"/>
</svg>
