<svg width="65" height="20" viewBox="0 0 65 20" fill="none" xmlns="http://www.w3.org/2000/svg">
<path d="M20.6682 1.40723H20.0691V15.0755H20.6682V1.40723Z" fill="#F2F2F2"/>
<path d="M25.4608 1.40723H24.9615V13.166H25.5606V1.40723H25.4608Z" fill="#F2F2F2"/>
<path d="M30.3534 1.40723H29.7543V13.166H30.3534V1.40723Z" fill="#F2F2F2"/>
<path d="M35.146 1.40723H34.5469V13.166H35.146V1.40723Z" fill="#F2F2F2"/>
<path d="M39.9386 1.40723H39.3395V13.166H39.9386V1.40723Z" fill="#F2F2F2"/>
<path d="M44.8311 1.40723H44.2321V15.0755H44.8311V1.40723Z" fill="#F2F2F2"/>
<path d="M42.7342 13.5679H22.1659V14.1709H42.7342V13.5679V13.5679Z" fill="#F2F2F2"/>
<path d="M43.9323 14.4722H21.0675V15.0752H43.9323V14.4722Z" fill="#F2F2F2"/>
<path d="M44.831 15.377H20.1689V15.98H44.831V15.377V15.377Z" fill="#F2F2F2"/>
<path d="M21.8663 8.64337H22.6651V13.166H23.1643V8.64337H23.9631V13.166H24.7618V1.40723H21.1674V14.171H21.9661V8.64337H21.8663Z" fill="#F2F2F2"/>
<path d="M26.659 8.64337H27.4578V13.166H27.957V8.64337H28.7558V13.166H29.5546V1.40723H25.9601V13.166H26.7589V8.64337H26.659Z" fill="#F2F2F2"/>
<path d="M31.4516 8.64337H32.2504V13.166H32.7496V8.64337H33.5484V13.166H34.3472V1.40723H30.7527V13.166H31.5515V8.64337H31.4516Z" fill="#F2F2F2"/>
<path d="M36.3441 8.64337H37.1428V13.166H37.6421V8.64337H38.4408V13.166H39.2396V1.40723H35.6451V13.166H36.4439V8.64337H36.3441Z" fill="#F2F2F2"/>
<path d="M41.1368 8.64337H41.9356V13.166H42.4348V8.64337H43.2336V14.171H43.9325V1.40723H40.338V13.166H41.1368V8.64337V8.64337Z" fill="#F2F2F2"/>
<path d="M12.2811 15.8793H13.0799V4.52259H13.8787V15.8793H14.3779V4.52259H15.1767V15.8793H15.9754V0H12.381V15.8793H12.2811Z" fill="#F2F2F2"/>
<path d="M16.175 15.8792H16.9738V6.83401H17.7726V15.8792H18.2718V6.83401H18.9707V15.8792H19.7695V4.52246H16.175V15.8792V15.8792Z" fill="#F2F2F2"/>
<path d="M0 4.52246V15.8792H0.79877V6.83401H1.59754V15.8792H1.89708H1.99693V6.83401H2.7957V15.8792H3.09524H3.59447V6.83401H4.39324V15.8792H4.89247V6.83401H5.69125V15.8792H6.39017H6.49002V6.83401H7.28879V15.8792H7.78802V6.83401H8.58679V15.8792H9.38556V6.83401H10.1843V15.8792H10.6836V6.83401H11.4823V15.8792H11.9816V4.52246H0Z" fill="#F2F2F2"/>
<path d="M49.0245 15.8793H49.9232V4.52259H50.7219V15.8793H51.2212V4.52259H52.0199V15.8793H52.8187V0H49.2242V15.8793H49.0245Z" fill="#F2F2F2"/>
<path d="M45.1305 15.8792H45.9293V6.83401H46.728V15.8792H47.2273V6.83401H47.9262V15.8792H48.725V4.52246H45.1305V15.8792V15.8792Z" fill="#F2F2F2"/>
<path d="M53.0184 4.52246V15.8792H53.8172V6.83401H54.616V15.8792H55.1152V6.83401H55.914V15.8792H56.7128V6.83401H57.5115V15.8792H58.0108V6.83401H58.8095V15.8792H58.9094H59.6083V6.83401H60.4071V15.8792H60.9063V6.83401H61.7051V15.8792H61.9048H62.2043V6.83401H62.9032V15.8792H63.1029H63.4025V6.83401H64.2012V15.8792H64.9002V4.52246H53.0184Z" fill="#F2F2F2"/>
<path d="M65 17.3872H0V18.6937H64.9002V17.3872H65Z" fill="#203A8F"/>
<path d="M65 15.9795H0V17.286H64.9002V15.9795H65Z" fill="#F2F2F2"/>
<path d="M65 18.6934H0V19.9999H64.9002V18.6934H65Z" fill="#CD1F1C"/>
</svg>
