<svg xmlns="http://www.w3.org/2000/svg" xmlns:xlink="http://www.w3.org/1999/xlink"><symbol fill="none" id="arrow-sym" viewBox="0 0 50 50"><title>arrow</title><path d="M9.45 15.95c-.6.6-.6 1.5 0 2.1.6.6 1.5.6 2.1 0l11.9-11.9v41.4c0 .8.7 1.5 1.5 1.5s1.5-.7 1.5-1.5V6.15l11.9 11.9c.6.6 1.5.6 2.1 0 .6-.6.6-1.5 0-2.1l-14.5-14.5c-.6-.6-1.5-.6-2.1 0l-14.4 14.5Z" fill="#F2F2F2"/></symbol><use fill="none" xlink:href="#arrow-sym" width="50" height="50"/><view id="arrow" viewBox="0 0 50 50"/><symbol fill="none" id="calendar-sym" viewBox="0 0 44 44"><title>calendar</title><path d="M40 4h-4V1c0-.6-.4-1-1-1s-1 .4-1 1v3H10V1c0-.6-.4-1-1-1S8 .4 8 1v3H4C1.8 4 0 5.8 0 8v32c0 2.2 1.8 4 4 4h36c2.2 0 4-1.8 4-4V8c0-2.2-1.8-4-4-4Zm2 36c0 1.1-.9 2-2 2H4c-1.1 0-2-.9-2-2V16h40v24Zm0-26H2V8c0-1.1.9-2 2-2h4v3c0 .6.4 1 1 1s1-.4 1-1V6h24v3c0 .6.4 1 1 1s1-.4 1-1V6h4c1.1 0 2 .9 2 2v6Zm-15 6h-4v4h4v-4Zm0 7h-4v4h4v-4Zm0 7h-4v4h4v-4Zm6-14h-4v4h4v-4Zm6 0h-4v4h4v-4Zm-18 0h-4v4h4v-4Zm18 7h-4v4h4v-4Zm-6 0h-4v4h4v-4ZM9 20H5v4h4v-4Zm0 7H5v4h4v-4Zm6 7h-4v4h4v-4Zm-6 0H5v4h4v-4Zm6-14h-4v4h4v-4Zm6 14h-4v4h4v-4Zm-6-7h-4v4h4v-4Zm6 0h-4v4h4v-4Z" fill="#47A4FA"/></symbol><use fill="none" xlink:href="#calendar-sym" y="50" width="44" height="44"/><view id="calendar" viewBox="0 50 44 44"/><symbol fill="none" id="email-sym" viewBox="0 0 45 44"><title>email</title><path d="M40.3 6h-36c-2.2 0-4 1.8-4 4v24c0 2.2 1.8 4 4 4h36c2.2 0 4-1.8 4-4V10c0-2.2-1.8-4-4-4Zm-36 2h36c.2 0 .5 0 .7.1L23.7 25.4c-.4.4-.8.6-1.4.6-.6 0-1-.2-1.4-.6L3.6 8.1c.3 0 .5-.1.7-.1Zm-2 26V9.7L14.6 22 2.3 34.3c.1 0 0-.1 0-.3Zm38 2h-36c-.2 0-.5 0-.7-.1l12.5-12.5 3.4 3.4c.8.8 1.8 1.1 2.8 1.1 1 0 2-.4 2.8-1.1l3.4-3.4L41 35.9c-.2.1-.4.1-.7.1Zm2-2v.3L30 22 42.3 9.7V34Z" fill="#47A4FA"/></symbol><use fill="none" xlink:href="#email-sym" y="94" width="45" height="44"/><view id="email" viewBox="0 94 45 44"/><symbol fill="none" id="location-sym" viewBox="0 0 44 44"><title>location</title><path d="M22 0C13.2 0 6 7.2 6 16c0 13 16 28 16 28s16-15 16-28c0-8.8-7.2-16-16-16Zm0 41S8 28 8 16C8 8.3 14.3 2 22 2s14 6.3 14 14c0 12-14 25-14 25Zm0-33c-4.4 0-8 3.6-8 8s3.6 8 8 8 8-3.6 8-8-3.6-8-8-8Zm0 14c-3.3 0-6-2.7-6-6s2.7-6 6-6 6 2.7 6 6-2.7 6-6 6Z" fill="#47A4FA"/></symbol><use fill="none" xlink:href="#location-sym" y="138" width="44" height="44"/><view id="location" viewBox="0 138 44 44"/><symbol fill="none" id="phone-sym" viewBox="0 0 44 44"><title>phone</title><path d="M43.9 10.5c0-5.8-5-10.5-9-10.5-.8 0-1.6.3-2.1.9-.2.2-.3.3-.4.5l-6.6 8.5c-.5.5-.9 1.3-.9 2.1 0 .7.2 1.3.6 1.8l2.4 2.4c.4.4.7.9.7 1.5 0 .7-.3 1.3-.9 1.6h.1c-2.4 3.3-5.2 6.2-8.5 8.5v-.1c-.4.5-1 .9-1.7.9-.6 0-1.2-.3-1.5-.7l-2.3-2.4c-.5-.4-1.1-.6-1.8-.6-.8 0-1.6.3-2.1.9l-8.5 6.6c-.2.1-.4.3-.5.4-.5.5-.9 1.3-.9 2.1 0 4 4.7 9 10.5 9 1.6 0 3.1-.4 4.5-1 12-6 22-16 28-28 .5-1.2.9-2.8.9-4.4Zm-2.8 3.7c-.1.1-.1.2-.1.3-5.8 11.4-15.2 20.8-26.6 26.6-.1 0-.2.1-.3.1-1.2.5-2.4.8-3.6.8C5.7 42 2 37.8 2 35c0-.4.2-.6.3-.7 0 0 .1-.1.2-.1s.1-.1.2-.1l8.5-6.6.2-.2c.1-.1.3-.3.7-.3.2 0 .3 0 .5.1l2.2 2.2c.8.8 1.8 1.3 2.9 1.3 1 0 2-.4 2.8-1.1l.1-.1c3.4-2.5 6.4-5.5 8.9-9 0 0 0-.1.1-.1.7-.7 1.1-1.7 1.1-2.8 0-1-.4-2.1-1.2-2.8l-.1-.1-2.3-2.2c-.1-.2-.1-.3-.1-.5 0-.4.2-.6.3-.7l.2-.2 6.6-8.5c0-.1.1-.1.1-.2.1-.1.1-.2.1-.2.1-.1.3-.3.7-.3h.2C38 2 42 5.6 42 10.3c-.1 1.5-.4 2.7-.9 3.9Z" fill="#47A4FA"/></symbol><use fill="none" xlink:href="#phone-sym" y="182" width="44" height="44"/><view id="phone" viewBox="0 182 44 44"/><symbol fill="none" id="polygon-sym" viewBox="0 0 20 20"><title>polygon</title><path d="M10 15 20 5H0l10 10Z" fill="#F2F2F2"/></symbol><use fill="none" xlink:href="#polygon-sym" y="226" width="20" height="20"/><view id="polygon" viewBox="0 226 20 20"/><symbol fill="none" id="smart_one-sym" viewBox="0 0 194 64"><title>smart_one</title><path d="M59.258 36.9h-11.3l7.9-34.2c.3-1.5-.6-2.7-2.1-2.7h-36.8c-1.5 0-3 1.2-3.4 2.7l-4.9 21.4c-.3 1.5.6 2.7 2.1 2.7h11.3l-2.3 10.2h-14.1l-2 8.5h20c1.5 0 3-1.2 3.4-2.7l5-21.8c.3-1.5-.6-2.7-2.1-2.7h-11.3l2.2-9.7h24.799l-8.5 36.9h14.1l-2.2 9.7h-38.9l2.2-9.7h-8.7l-3.6 15.6c-.3 1.5.6 2.7 2.1 2.7h50.9c1.5 0 3-1.2 3.4-2.7l4.9-21.4c.4-1.6-.6-2.8-2.1-2.8Z" fill="url(#a)"/><path opacity=".55" d="M12.457 45.4h-8.8l-2.2 9.8h8.7l2.3-9.8Z" fill="url(#b)"/><path d="M81.558 31.4c1.4.5 3.1.8 5.1.8 3.2 0 5.7-.6 7.6-1.8 1.9-1.2 3.1-2.9 3.6-5.2.1-.5.2-1 .2-1.6 0-1.5-.6-2.8-1.7-3.7-1.2-.9-3-1.6-5.5-2.1-1.6-.3-2.7-.7-3.3-1-.6-.3-.9-.7-.9-1.3v-.4c.2-.6.5-1.1 1.1-1.5.6-.3 1.4-.5 2.3-.5.8 0 1.4.2 1.9.5s.7.7.8 1.2c.2.4.5.6 1 .6h4.7c.2 0 .4-.1.5-.2.1-.1.2-.3.3-.5 0-.3.1-.5.1-.6 0-.9-.4-1.9-1.1-2.8-.7-.9-1.8-1.7-3.1-2.3-1.3-.6-2.8-.9-4.5-.9-2.8 0-5.1.6-6.9 1.8-1.8 1.2-2.9 2.8-3.3 4.9-.1.6-.2 1.1-.2 1.6 0 3 2.2 5 6.6 5.9 1.8.4 3 .8 3.7 1.1.7.3 1 .7 1 1.3v.4c-.2.6-.6 1.1-1.3 1.5-.7.4-1.7.5-2.9.5-1 0-1.7-.2-2.2-.5-.5-.3-.9-.8-1.1-1.3-.2-.2-.3-.4-.4-.5-.1-.1-.4-.1-.6-.1h-4.5c-.2 0-.4.1-.5.2-.2.1-.3.3-.3.5 0 .4-.1.6-.1.8 0 1.1.4 2.1 1.1 3 .3.9 1.4 1.6 2.8 2.2Zm18.2.4h4.2c.2 0 .399-.1.599-.2.2-.2.301-.4.401-.6l2.599-12.2 2.301 6.7c.2.5.5.8 1 .8h1.799c.5 0 .901-.3 1.301-.8l4.9-6.4-2.5 11.9c0 .2 0 .4.1.6.1.2.299.2.599.2h4.201c.2 0 .5-.1.6-.2.2-.2.299-.4.299-.6l4.601-21.6c0-.2-.001-.5-.101-.6-.1-.2-.3-.2-.6-.2h-3.799c-.3 0-.6.1-.8.2-.2.2-.4.3-.5.5l-7.901 10.3-3.599-10.3c-.1-.2-.201-.4-.401-.5-.2-.1-.399-.2-.699-.2h-3.801c-.2 0-.499.1-.699.2-.2.2-.3.4-.4.6l-4.6 21.6c0 .2 0 .4.1.6.4.2.6.2.8.2Zm43.399-23.3h-5.399c-.6 0-1.2.3-1.5 1l-12.3 21.4c-.1.1-.1.3-.1.4 0 .2.099.3.199.5.1.1.3.2.5.2h4.6c.5 0 1.001-.2 1.301-.7l1.9-3.2h8.699l.5 3.2c.1.5.4.8 1 .8h4.201c.2 0 .4-.1.6-.3.2-.2.199-.4.199-.7l-3.199-21.4c-.2-.9-.601-1.2-1.201-1.2Zm-8.5 14.4 4.801-8.5 1.199 8.5h-6ZM169.858 10c-1.4-1-3.3-1.5-5.9-1.5h-9.2c-.2 0-.501.1-.701.2-.2.2-.3.4-.4.6l-4.6 21.6c0 .2 0 .4.1.6.1.2.3.2.5.2h4.601c.2 0 .5-.1.7-.2.2-.2.3-.4.4-.6l1.6-7.3h3.199l2.101 7.2c.2.6.5.9 1.2.9h4.699c.2 0 .4-.1.5-.2.2-.1.301-.3.301-.5v-.4l-2.801-8.1c1.4-.6 2.6-1.4 3.5-2.5 1-1.1 1.6-2.4 1.9-4 .1-.6.201-1.3.201-1.8.2-1.8-.5-3.2-1.9-4.2Zm-4.6 6.1c-.2.8-.601 1.5-1.201 2-.6.5-1.399.7-2.299.7h-3.701l1.201-5.5h3.7c.8 0 1.4.2 1.8.5.4.4.6.9.6 1.5 0 .4 0 .6-.1.8Zm28.6-7.3c-.1-.2-.3-.2-.6-.2h-18.101c-.2 0-.499.1-.699.2-.2.2-.301.4-.401.6l-.799 3.7c0 .2 0 .4.1.6.1.2.3.2.6.2h5.9l-3.6 17.1c0 .2 0 .4.1.6.1.2.3.2.6.2h4.599c.2 0 .5-.1.6-.2.2-.2.301-.4.301-.6l3.699-17.1h5.9c.2 0 .5-.1.6-.2.2-.2.301-.4.301-.6l.8-3.7c.2-.3.2-.5.1-.6ZM88.657 40.9c-1.4-.6-2.9-.9-4.6-.9-3.2 0-5.8.8-7.7 2.3-1.9 1.5-3.3 3.8-4 6.8-.4 1.7-.9 3.6-1.2 5.8-.1.7-.2 1.3-.2 1.8 0 1.6.4 2.9 1.2 4 .8 1.1 1.9 1.9 3.2 2.5 1.4.6 2.9.8 4.6.8 3.2 0 5.8-.8 7.7-2.2 1.9-1.5 3.3-3.8 4-6.8.5-2 .9-4 1.2-5.8.1-.7.2-1.2.2-1.7 0-1.6-.4-2.9-1.2-4-.7-1.2-1.8-2-3.2-2.6Zm-2.2 8.4c-.3 1.6-.7 3.4-1.2 5.5-.4 1.4-.9 2.5-1.8 3.2-.8.7-1.8 1-3 1-2 0-3.1-1-3.1-2.9 0-.5 0-.9.1-1.4.4-2.2.8-4.1 1.2-5.5.4-1.4.9-2.5 1.8-3.2.8-.7 1.8-1 3-1 2 0 3 1 3 2.9.2.5.1.9 0 1.4Zm31.1-8.7c-.1-.2-.3-.2-.5-.2h-4.199c-.2 0-.5.1-.6.2-.2.2-.3.4-.3.6l-2.6 12.3-5.201-12.5c-.1-.4-.5-.6-1-.6h-3.7c-.2 0-.5.1-.6.2-.2.2-.3.4-.3.6l-4.6 21.6c0 .2 0 .4.1.6.1.2.3.2.6.2h4.2c.2 0 .4-.1.6-.2.2-.2.3-.4.4-.6l2.501-11.8 5.299 12c.1.2.2.3.4.4.1.1.401.2.701.2h3.7c.2 0 .499-.1.599-.2.2-.2.301-.4.301-.6l4.6-21.6c-.3-.2-.301-.4-.401-.6Zm20.6-.3h-15.699c-.2 0-.5.1-.7.2-.2.2-.3.4-.4.6l-4.6 21.6c0 .2 0 .4.1.6.1.2.3.2.6.2h16c.2 0 .399-.1.599-.2.2-.2.301-.4.401-.6l.699-3.3c0-.2 0-.4-.1-.6-.1-.2-.3-.2-.5-.2h-10.799l.899-4.3h9.801c.2 0 .499-.1.699-.2.2-.2.3-.4.4-.6l.6-3c0-.2 0-.5-.1-.6-.1-.2-.3-.2-.5-.2h-9.799l.899-4.2h10.5c.2 0 .501-.1.701-.2.2-.2.3-.4.4-.6l.7-3.3c0-.2 0-.5-.1-.6-.3-.4-.501-.5-.701-.5Z" fill="#F2F2F2"/><defs><linearGradient id="a" x1="57.134" y1="60.997" x2="5.849" y2="9.713" gradientUnits="userSpaceOnUse"><stop stop-color="#F64F59"/><stop offset=".4" stop-color="#C471ED"/><stop offset="1" stop-color="#12C2E9"/></linearGradient><linearGradient id="b" x1="6.943" y1="55.156" x2="6.943" y2="45.427" gradientUnits="userSpaceOnUse"><stop stop-opacity="0"/><stop offset=".91" stop-opacity=".91"/><stop offset="1"/></linearGradient></defs></symbol><use fill="none" xlink:href="#smart_one-sym" y="246" width="194" height="64"/><view id="smart_one" viewBox="0 246 194 64"/></svg>