<svg width="220" height="82" viewBox="0 0 220 82" fill="none" xmlns="http://www.w3.org/2000/svg">
<path d="M57.217 15.8L46.117 26.9001C45.817 27.2001 45.817 27.5001 45.917 27.9001C46.717 29.7001 47.117 31.7004 47.017 33.7004C46.917 41.3004 40.817 47.6001 33.217 47.9001C24.617 48.3001 17.617 41.3004 18.017 32.7004C18.417 25.2004 24.617 19.1001 32.117 18.9001C34.217 18.9001 36.117 19.2002 37.917 20.0002C38.217 20.1002 38.617 20 38.917 19.8L50.117 8.60031C50.917 7.80031 50.8169 6.40002 49.8169 5.80002C44.6169 2.60002 38.4169 0.700116 31.8169 0.900116C14.6169 1.30012 0.616959 15.2001 0.016959 32.4001C-0.583041 51.2001 14.817 66.6002 33.617 66.0002C50.817 65.5002 64.717 51.4003 65.117 34.1003C65.217 27.5003 63.417 21.3003 60.117 16.1003C59.417 15.2003 58.117 15 57.217 15.8Z" fill="#F2F2F2"/>
<path d="M86.1169 45.6001C84.1169 44.5001 82.5169 43.0001 81.3169 41.1001C80.1169 39.2001 79.6169 37.0001 79.6169 34.6001C79.6169 32.2001 80.2169 30.0001 81.3169 28.1001C82.5169 26.2001 84.0169 24.7001 86.1169 23.6001C88.1169 22.5001 90.4169 22 92.9169 22C95.0169 22 96.9169 22.4001 98.6169 23.1001C100.317 23.8001 101.817 24.8998 102.917 26.2998L99.3169 29.7002C97.6169 27.8002 95.6169 26.7998 93.2169 26.7998C91.7169 26.7998 90.3169 27.0998 89.1169 27.7998C87.9169 28.4998 87.0169 29.4001 86.3169 30.6001C85.6169 31.8001 85.3169 33.1002 85.3169 34.7002C85.3169 36.3002 85.6169 37.5998 86.3169 38.7998C87.0169 39.9998 87.9169 40.9001 89.1169 41.6001C90.3169 42.3001 91.6169 42.6001 93.2169 42.6001C95.6169 42.6001 97.7169 41.6002 99.3169 39.7002L102.917 43.1001C101.717 44.5001 100.317 45.5998 98.6169 46.2998C96.9169 46.9998 95.0169 47.3999 92.8169 47.3999C90.4169 47.2999 88.1169 46.7001 86.1169 45.6001Z" fill="#F2F2F2"/>
<path d="M106.417 28H111.917V39.2002L121.017 28H126.017V46.7998H120.617V35.7002L111.517 46.7998H106.417V28Z" fill="#F2F2F2"/>
<path d="M145.017 41.2002C145.917 40.3002 146.317 38.9999 146.317 37.3999C146.317 35.7999 145.917 34.6001 145.017 33.6001C144.117 32.7001 143.017 32.2002 141.617 32.2002C140.217 32.2002 139.117 32.7001 138.217 33.6001C137.317 34.5001 136.917 35.7999 136.917 37.3999C136.917 38.9999 137.317 40.2002 138.217 41.2002C139.117 42.1002 140.217 42.6001 141.617 42.6001C143.017 42.6001 144.117 42.2002 145.017 41.2002ZM147.317 29C148.717 29.8 149.917 30.8999 150.717 32.3999C151.517 33.8999 151.917 35.6 151.917 37.5C151.917 39.4 151.517 41.1001 150.717 42.6001C149.917 44.1001 148.817 45.2 147.317 46C145.917 46.8 144.317 47.2002 142.517 47.2002C140.117 47.2002 138.217 46.3999 136.817 44.8999V53.7002H131.317V28H136.517V30.2002C137.917 28.6002 139.817 27.7998 142.417 27.7998C144.217 27.7998 145.817 28.2 147.317 29Z" fill="#F2F2F2"/>
<path d="M155.817 28H161.317V39.2002L170.417 28H175.417V46.7998H170.017V35.7002L160.917 46.7998H155.817V28Z" fill="#F2F2F2"/>
<path d="M199.717 28L191.217 47.8999C190.317 50.0999 189.317 51.6 188.017 52.5C186.717 53.4 185.217 53.7998 183.417 53.7998C182.417 53.7998 181.517 53.5998 180.517 53.2998C179.517 52.9998 178.817 52.6 178.217 52L180.217 48.1001C180.617 48.5001 181.117 48.8 181.617 49C182.117 49.2 182.717 49.2998 183.217 49.2998C183.917 49.2998 184.617 49.0998 185.017 48.7998C185.517 48.3998 185.917 47.8 186.317 47L186.417 46.7998L178.317 27.8999H183.917L189.217 40.7002L194.517 27.8999H199.717V28Z" fill="#F2F2F2"/>
<path d="M206.017 45.8999C204.417 45.0999 203.217 43.9 202.317 42.5C201.417 41 201.017 39.4 201.017 37.5C201.017 35.6 201.417 34 202.317 32.5C203.217 31 204.417 29.9001 206.017 29.1001C207.617 28.3001 209.417 27.8999 211.417 27.8999C213.417 27.8999 215.117 28.3001 216.617 29.1001C218.117 29.9001 219.217 31.1001 219.817 32.6001L215.617 34.8999C214.617 33.1999 213.217 32.2998 211.417 32.2998C210.017 32.2998 208.817 32.8002 207.917 33.7002C207.017 34.6002 206.517 35.9 206.517 37.5C206.517 39.1 207.017 40.3998 207.917 41.2998C208.817 42.1998 210.017 42.7002 211.417 42.7002C213.317 42.7002 214.717 41.8001 215.617 40.1001L219.817 42.3999C219.117 43.8999 218.017 45.0999 216.617 45.8999C215.117 46.6999 213.417 47.2002 211.417 47.2002C209.417 47.1002 207.617 46.6999 206.017 45.8999Z" fill="#F2F2F2"/>
<path d="M165.617 66.7998C165.917 66.4998 166.117 66.1001 166.117 65.6001C166.117 65.1001 165.917 64.6999 165.617 64.3999C165.317 64.0999 164.817 63.9999 164.117 63.8999V67.2998C164.817 67.2998 165.217 67.0998 165.617 66.7998ZM162.117 66.7998C162.417 67.0998 162.917 67.2998 163.617 67.2998V63.8999C163.017 63.8999 162.517 64.0999 162.117 64.3999C161.817 64.6999 161.617 65.1001 161.617 65.6001C161.617 66.1001 161.717 66.4998 162.117 66.7998ZM166.017 67.2002C165.617 67.6002 164.917 67.7998 164.117 67.7998V69.3999H163.517V67.7998C162.717 67.7998 162.117 67.6002 161.617 67.2002C161.217 66.8002 160.917 66.3001 160.917 65.6001C160.917 64.9001 161.117 64.4 161.617 64C162.017 63.6 162.717 63.3999 163.517 63.3999V61.6001H164.117V63.3999C164.917 63.3999 165.617 63.6 166.017 64C166.417 64.4 166.717 64.9001 166.717 65.6001C166.717 66.3001 166.517 66.8002 166.017 67.2002Z" fill="#F2F2F2"/>
<path d="M168.817 64.2998C168.517 64.5998 168.417 64.8999 168.317 65.3999H171.417C171.417 64.9999 171.217 64.5998 170.917 64.2998C170.617 63.9998 170.317 63.8999 169.817 63.8999C169.417 63.8999 169.117 63.9998 168.817 64.2998ZM172.017 65.7998H168.317C168.317 66.2998 168.517 66.5999 168.817 66.8999C169.117 67.1999 169.517 67.2998 170.017 67.2998C170.317 67.2998 170.517 67.3002 170.717 67.2002C170.917 67.1002 171.117 66.9998 171.317 66.7998L171.617 67.2002C171.417 67.4002 171.217 67.6002 170.917 67.7002C170.617 67.8002 170.317 67.8999 169.917 67.8999C169.517 67.8999 169.117 67.8001 168.717 67.6001C168.417 67.4001 168.117 67.0998 167.917 66.7998C167.717 66.4998 167.617 66.1002 167.617 65.7002C167.617 65.3002 167.717 64.9001 167.917 64.6001C168.117 64.3001 168.317 63.9998 168.717 63.7998C169.017 63.5998 169.417 63.5 169.817 63.5C170.217 63.5 170.617 63.5998 170.917 63.7998C171.217 63.9998 171.517 64.3001 171.717 64.6001C171.917 64.9001 172.017 65.2998 172.017 65.7998V65.7998Z" fill="#F2F2F2"/>
<path d="M174.117 66.3999C174.017 66.7999 173.917 67.1002 173.717 67.2002H176.417V63.8999H174.317L174.217 64.8999C174.217 65.4999 174.117 65.9999 174.117 66.3999ZM177.617 67.2002V68.7998H177.017V67.7002H173.117V68.7998H172.517V67.2002H172.717C173.017 67.2002 173.217 67.0001 173.317 66.6001C173.417 66.2001 173.517 65.5999 173.517 64.8999L173.617 63.3999H176.817V67.2998H177.617V67.2002Z" fill="#F2F2F2"/>
<path d="M179.617 64.2998C179.317 64.5998 179.217 64.8999 179.117 65.3999H182.217C182.217 64.9999 182.017 64.5998 181.717 64.2998C181.417 63.9998 181.117 63.8999 180.617 63.8999C180.317 63.8999 179.917 63.9998 179.617 64.2998ZM182.817 65.7998H179.117C179.117 66.2998 179.317 66.5999 179.617 66.8999C179.917 67.1999 180.317 67.2998 180.817 67.2998C181.117 67.2998 181.317 67.3002 181.517 67.2002C181.717 67.1002 181.917 66.9998 182.117 66.7998L182.417 67.2002C182.217 67.4002 182.017 67.6002 181.717 67.7002C181.417 67.8002 181.117 67.8999 180.717 67.8999C180.317 67.8999 179.917 67.8001 179.517 67.6001C179.217 67.4001 178.917 67.0998 178.717 66.7998C178.517 66.4998 178.417 66.1002 178.417 65.7002C178.417 65.3002 178.517 64.9001 178.717 64.6001C178.917 64.3001 179.117 63.9998 179.517 63.7998C179.817 63.5998 180.217 63.5 180.617 63.5C181.017 63.5 181.417 63.5998 181.717 63.7998C182.017 63.9998 182.317 64.3001 182.517 64.6001C182.717 64.9001 182.817 65.2998 182.817 65.7998V65.7998Z" fill="#F2F2F2"/>
<path d="M187.417 67.1C187.617 67 187.817 66.7999 188.017 66.4999C188.117 66.1999 188.217 65.9 188.217 65.6C188.217 65.3 188.117 65.0001 188.017 64.7001C187.917 64.4001 187.717 64.2 187.417 64.1C187.217 64 186.917 63.8998 186.617 63.8998C186.317 63.8998 186.017 64 185.817 64.1C185.617 64.2 185.417 64.4001 185.217 64.7001C185.117 65.0001 185.017 65.3 185.017 65.6C185.017 65.9 185.117 66.1999 185.217 66.4999C185.317 66.7999 185.517 67 185.817 67.1C186.017 67.2 186.317 67.2997 186.617 67.2997C186.817 67.2997 187.117 67.2 187.417 67.1ZM187.717 63.6C188.017 63.8 188.317 63.9998 188.517 64.3998C188.717 64.6998 188.817 65.1 188.817 65.6C188.817 66 188.717 66.3997 188.517 66.7997C188.317 67.0997 188.117 67.4 187.717 67.6C187.417 67.8 187.017 67.8998 186.617 67.8998C186.217 67.8998 185.917 67.8001 185.617 67.7001C185.317 67.6001 185.117 67.3 184.917 67.1V69.4999H184.317V63.4999H184.917V64.3998C185.117 64.0998 185.317 63.9001 185.617 63.7001C185.917 63.5001 186.217 63.4999 186.617 63.4999C187.017 63.3999 187.417 63.5 187.717 63.6Z" fill="#F2F2F2"/>
<path d="M192.417 67.1001C192.617 66.9001 192.817 66.6999 192.917 66.3999V65.7002H191.517C190.817 65.7002 190.417 66 190.417 66.5C190.417 66.8 190.517 67.0001 190.717 67.1001C190.917 67.2001 191.217 67.2998 191.517 67.2998C191.817 67.2998 192.117 67.3001 192.417 67.1001ZM193.017 63.7998C193.317 64.0998 193.517 64.5001 193.517 65.1001V67.7998H192.917V67.1001C192.817 67.3001 192.617 67.5001 192.317 67.6001C192.017 67.7001 191.717 67.7998 191.417 67.7998C190.917 67.7998 190.517 67.7 190.217 67.5C189.917 67.3 189.817 67.0001 189.817 66.6001C189.817 66.2001 189.917 65.9002 190.217 65.7002C190.517 65.5002 190.917 65.3999 191.517 65.3999H192.917V65.1001C192.917 64.7001 192.817 64.4002 192.617 64.2002C192.417 64.0002 192.117 63.8999 191.717 63.8999C191.417 63.8999 191.217 63.9 190.917 64C190.617 64.1 190.417 64.1999 190.217 64.3999L189.917 64C190.117 63.8 190.417 63.7001 190.717 63.6001C191.017 63.5001 191.317 63.3999 191.717 63.3999C192.317 63.3999 192.717 63.4998 193.017 63.7998Z" fill="#F2F2F2"/>
<path d="M198.817 63.3999V67.7998H198.217V64H196.117L196.017 65.1001C196.017 66.0001 195.917 66.7002 195.717 67.2002C195.517 67.7002 195.217 67.8999 194.817 67.8999C194.717 67.8999 194.517 67.8998 194.417 67.7998V67.2998C194.517 67.2998 194.617 67.2998 194.617 67.2998C194.817 67.2998 195.017 67.2 195.117 67C195.217 66.8 195.317 66.5002 195.317 66.2002C195.317 65.9002 195.417 65.5 195.417 65L195.517 63.3999H198.817V63.3999Z" fill="#F2F2F2"/>
<path d="M203.417 67.1001C203.617 66.9001 203.717 66.6999 203.717 66.3999C203.717 66.0999 203.617 65.8002 203.417 65.7002C203.217 65.5002 202.917 65.5 202.517 65.5H201.417V67.3999H202.517C202.817 67.2999 203.217 67.2001 203.417 67.1001ZM203.817 65.2998C204.117 65.4998 204.217 65.8998 204.217 66.2998C204.217 66.7998 204.017 67.0999 203.717 67.3999C203.417 67.5999 202.917 67.7998 202.417 67.7998H200.617V63.3999H201.217V64.8999H202.517C203.117 64.8999 203.617 65.0998 203.817 65.2998Z" fill="#F2F2F2"/>
<path d="M205.617 63.3999H206.217V65.2998H208.917V63.3999H209.517V67.7998H208.917V65.7998H206.217V67.7998H205.617V63.3999Z" fill="#F2F2F2"/>
<path d="M213.617 67.1001C213.817 66.9001 214.017 66.6999 214.117 66.3999V65.7002H212.717C212.017 65.7002 211.617 66 211.617 66.5C211.617 66.8 211.717 67.0001 211.917 67.1001C212.117 67.2001 212.417 67.2998 212.717 67.2998C213.017 67.2998 213.317 67.3001 213.617 67.1001ZM214.217 63.7998C214.517 64.0998 214.717 64.5001 214.717 65.1001V67.7998H214.117V67.1001C214.017 67.3001 213.817 67.5001 213.517 67.6001C213.217 67.7001 212.917 67.7998 212.617 67.7998C212.117 67.7998 211.717 67.7 211.417 67.5C211.117 67.3 211.017 67.0001 211.017 66.6001C211.017 66.2001 211.117 65.9002 211.417 65.7002C211.717 65.5002 212.117 65.3999 212.717 65.3999H214.117V65.1001C214.117 64.7001 214.017 64.4002 213.817 64.2002C213.617 64.0002 213.317 63.8999 212.917 63.8999C212.617 63.8999 212.417 63.9 212.117 64C211.817 64.1 211.617 64.1999 211.417 64.3999L211.117 64C211.317 63.8 211.617 63.7001 211.917 63.6001C212.217 63.5001 212.517 63.3999 212.917 63.3999C213.517 63.3999 213.917 63.4998 214.217 63.7998Z" fill="#F2F2F2"/>
<path d="M218.017 65.8999H219.317V63.8999H218.017C217.117 63.8999 216.717 64.1999 216.717 64.8999C216.717 65.5999 217.117 65.8999 218.017 65.8999ZM219.817 63.3999V67.7998H219.317V66.3999H217.917H217.717L216.717 67.7998H216.117L217.217 66.2998C216.917 66.1998 216.617 65.9998 216.417 65.7998C216.217 65.5998 216.117 65.2999 216.117 64.8999C216.117 64.3999 216.317 63.9998 216.617 63.7998C216.917 63.4998 217.417 63.3999 218.017 63.3999H219.817Z" fill="#F2F2F2"/>
<path d="M164.517 75.5H162.817V79.3999H162.217V75.5H160.617V75H164.517V75.5Z" fill="#F2F2F2"/>
<path d="M166.017 75.8999C165.717 76.1999 165.617 76.5 165.517 77H168.617C168.617 76.6 168.417 76.1999 168.117 75.8999C167.817 75.5999 167.517 75.5 167.017 75.5C166.617 75.5 166.317 75.5999 166.017 75.8999ZM169.217 77.3999H165.517C165.517 77.8999 165.717 78.2 166.017 78.5C166.317 78.8 166.717 78.8999 167.217 78.8999C167.517 78.8999 167.717 78.8998 167.917 78.7998C168.117 78.6998 168.317 78.5999 168.517 78.3999L168.817 78.7998C168.617 78.9998 168.417 79.1998 168.117 79.2998C167.817 79.3998 167.517 79.5 167.117 79.5C166.717 79.5 166.317 79.4002 165.917 79.2002C165.617 79.0002 165.317 78.6999 165.117 78.3999C164.917 78.0999 164.817 77.6998 164.817 77.2998C164.817 76.8998 164.917 76.5002 165.117 76.2002C165.317 75.9002 165.517 75.5999 165.917 75.3999C166.217 75.1999 166.617 75.1001 167.017 75.1001C167.417 75.1001 167.817 75.1999 168.117 75.3999C168.417 75.5999 168.717 75.9002 168.917 76.2002C169.117 76.5002 169.217 76.8999 169.217 77.3999V77.3999Z" fill="#F2F2F2"/>
<path d="M173.717 78.7C173.917 78.6 174.117 78.3999 174.317 78.0999C174.417 77.7999 174.517 77.5 174.517 77.2C174.517 76.9 174.417 76.5996 174.317 76.2996C174.217 75.9996 174.017 75.8 173.717 75.7C173.517 75.6 173.217 75.4998 172.917 75.4998C172.617 75.4998 172.317 75.6 172.117 75.7C171.917 75.8 171.717 75.9996 171.517 76.2996C171.417 76.5996 171.317 76.9 171.317 77.2C171.317 77.5 171.417 77.7999 171.517 78.0999C171.617 78.3999 171.817 78.6 172.117 78.7C172.317 78.8 172.617 78.8997 172.917 78.8997C173.217 78.8997 173.517 78.8 173.717 78.7ZM174.017 75.2996C174.317 75.4996 174.617 75.6999 174.817 76.0999C175.017 76.3999 175.117 76.7996 175.117 77.2996C175.117 77.6996 175.017 78.0998 174.817 78.4998C174.617 78.7998 174.417 79.0996 174.017 79.2996C173.717 79.4996 173.317 79.5999 172.917 79.5999C172.517 79.5999 172.217 79.4997 171.917 79.3997C171.617 79.2997 171.417 78.9996 171.217 78.7996V81.2H170.617V75.2H171.217V76.0999C171.417 75.7999 171.617 75.5997 171.917 75.3997C172.217 75.1997 172.517 75.2 172.917 75.2C173.317 75 173.717 75.0996 174.017 75.2996Z" fill="#F2F2F2"/>
<path d="M179.617 78.7C179.817 78.6 180.017 78.3999 180.217 78.0999C180.317 77.7999 180.417 77.5 180.417 77.2C180.417 76.9 180.317 76.5996 180.217 76.2996C180.117 75.9996 179.917 75.8 179.617 75.7C179.417 75.6 179.117 75.4998 178.817 75.4998C178.517 75.4998 178.217 75.6 178.017 75.7C177.817 75.8 177.617 75.9996 177.417 76.2996C177.317 76.5996 177.217 76.9 177.217 77.2C177.217 77.5 177.317 77.7999 177.417 78.0999C177.517 78.3999 177.717 78.6 178.017 78.7C178.217 78.8 178.517 78.8997 178.817 78.8997C179.117 78.8997 179.417 78.8 179.617 78.7ZM179.917 75.2996C180.217 75.4996 180.517 75.6999 180.717 76.0999C180.917 76.3999 181.017 76.7996 181.017 77.2996C181.017 77.6996 180.917 78.0998 180.717 78.4998C180.517 78.7998 180.317 79.0996 179.917 79.2996C179.617 79.4996 179.217 79.5999 178.817 79.5999C178.417 79.5999 178.117 79.4997 177.817 79.3997C177.517 79.2997 177.317 78.9996 177.117 78.7996V81.2H176.517V75.2H177.117V76.0999C177.317 75.7999 177.517 75.5997 177.817 75.3997C178.117 75.1997 178.417 75.2 178.817 75.2C179.217 75 179.617 75.0996 179.917 75.2996Z" fill="#F2F2F2"/>
<path d="M182.517 75H183.117V78.5L186.017 75H186.517V79.3999H185.917V75.8999L183.017 79.3999H182.517V75Z" fill="#F2F2F2"/>
<path d="M191.517 75.5H189.817V79.3999H189.217V75.5H187.617V75H191.517V75.5Z" fill="#F2F2F2"/>
<path d="M195.017 78.7002C195.217 78.6002 195.417 78.4001 195.617 78.1001C195.717 77.8001 195.817 77.5002 195.817 77.2002C195.817 76.9002 195.717 76.5998 195.617 76.2998C195.517 75.9998 195.317 75.8002 195.017 75.7002C194.817 75.6002 194.517 75.5 194.217 75.5C193.917 75.5 193.617 75.6002 193.417 75.7002C193.217 75.8002 193.017 75.9998 192.817 76.2998C192.717 76.5998 192.617 76.9002 192.617 77.2002C192.617 77.5002 192.717 77.8001 192.817 78.1001C192.917 78.4001 193.117 78.6002 193.417 78.7002C193.717 78.8002 193.917 78.8999 194.217 78.8999C194.517 78.8999 194.717 78.8002 195.017 78.7002ZM193.017 79.1001C192.717 78.9001 192.417 78.5998 192.217 78.2998C192.017 77.9998 191.917 77.6002 191.917 77.2002C191.917 76.8002 192.017 76.4001 192.217 76.1001C192.417 75.8001 192.717 75.4998 193.017 75.2998C193.317 75.0998 193.717 75 194.117 75C194.517 75 194.917 75.0998 195.217 75.2998C195.517 75.4998 195.817 75.8001 196.017 76.1001C196.217 76.4001 196.317 76.8002 196.317 77.2002C196.317 77.6002 196.217 77.9998 196.017 78.2998C195.817 78.5998 195.517 78.9001 195.217 79.1001C194.917 79.3001 194.517 79.3999 194.117 79.3999C193.717 79.3999 193.317 79.3001 193.017 79.1001Z" fill="#F2F2F2"/>
<path d="M200.917 78.7C201.117 78.6 201.317 78.3999 201.517 78.0999C201.617 77.7999 201.717 77.5 201.717 77.2C201.717 76.9 201.617 76.5996 201.517 76.2996C201.417 75.9996 201.217 75.8 200.917 75.7C200.717 75.6 200.417 75.4998 200.117 75.4998C199.817 75.4998 199.517 75.6 199.317 75.7C199.117 75.8 198.917 75.9996 198.717 76.2996C198.617 76.5996 198.517 76.9 198.517 77.2C198.517 77.5 198.617 77.7999 198.717 78.0999C198.817 78.3999 199.017 78.6 199.317 78.7C199.517 78.8 199.817 78.8997 200.117 78.8997C200.417 78.8997 200.617 78.8 200.917 78.7ZM201.217 75.2996C201.517 75.4996 201.817 75.6999 202.017 76.0999C202.217 76.3999 202.317 76.7996 202.317 77.2996C202.317 77.6996 202.217 78.0998 202.017 78.4998C201.817 78.7998 201.617 79.0996 201.217 79.2996C200.917 79.4996 200.517 79.5999 200.117 79.5999C199.717 79.5999 199.417 79.4997 199.117 79.3997C198.817 79.2997 198.617 78.9996 198.417 78.7996V81.2H197.817V75.2H198.417V76.0999C198.617 75.7999 198.817 75.5997 199.117 75.3997C199.417 75.1997 199.717 75.2 200.117 75.2C200.517 75 200.917 75.0996 201.217 75.2996Z" fill="#F2F2F2"/>
<path d="M203.717 75H204.317V78.5L207.217 75H207.817V79.3999H207.217V75.8999L204.317 79.3999H203.717V75Z" fill="#F2F2F2"/>
<path d="M211.217 77.5H212.517V75.5H211.217C210.317 75.5 209.917 75.8 209.917 76.5C209.917 77.2 210.317 77.5 211.217 77.5ZM213.017 75V79.3999H212.517V78H211.117H210.917L209.917 79.3999H209.317L210.417 77.8999C210.117 77.7999 209.817 77.5999 209.617 77.3999C209.417 77.1999 209.317 76.9 209.317 76.5C209.317 76 209.517 75.5999 209.817 75.3999C210.117 75.0999 210.617 75 211.217 75H213.017Z" fill="#F2F2F2"/>
<path d="M156.217 60.2998H155.617V80.7998H156.217V60.2998Z" fill="#F2F2F2"/>
</svg>
