<svg width="138" height="96" viewBox="0 0 138 96" fill="none" xmlns="http://www.w3.org/2000/svg">
<path d="M44.317 2.8999H43.1169V31.3999H44.317V2.8999Z" fill="#F2F2F2"/>
<path d="M54.4169 2.8999H53.2169V27.3999H54.4169V2.8999Z" fill="#F2F2F2"/>
<path d="M64.5169 2.8999H63.3169V27.3999H64.5169V2.8999Z" fill="#F2F2F2"/>
<path d="M74.7169 2.8999H73.5168V27.3999H74.7169V2.8999Z" fill="#F2F2F2"/>
<path d="M84.817 2.8999H83.6169V27.3999H84.817V2.8999Z" fill="#F2F2F2"/>
<path d="M94.9169 2.8999H93.7169V31.3999H94.9169V2.8999Z" fill="#F2F2F2"/>
<path d="M90.6169 28.2998H47.3169V29.5H90.6169V28.2998Z" fill="#F2F2F2"/>
<path d="M93.1168 30.2002H45.0168V31.3999H93.1168V30.2002Z" fill="#F2F2F2"/>
<path d="M94.9169 32.1001H43.0168V33.2998H94.9169V32.1001Z" fill="#F2F2F2"/>
<path d="M46.7169 18H48.3168V27.3999H49.2169V18H50.8168V27.3999H52.5168V2.8999H45.0168V29.5H46.7169V18Z" fill="#F2F2F2"/>
<path d="M56.817 18H58.417V27.3999H59.317V18H60.917V27.3999H62.6169V2.8999H55.1169V27.3999H56.817V18V18Z" fill="#F2F2F2"/>
<path d="M67.0169 18H68.6169V27.3999H69.5169V18H71.1169V27.3999H72.8169V2.8999H65.3169V27.3999H67.0169V18V18Z" fill="#F2F2F2"/>
<path d="M77.1169 18H78.717V27.3999H79.6169V18H81.217V27.3999H82.917V2.8999H75.417V27.3999H77.1169V18V18Z" fill="#F2F2F2"/>
<path d="M87.2169 18H88.8168V27.3999H89.7169V18H91.3168V29.3999H93.0168V2.7998H85.5168V27.2998H87.2169V18V18Z" fill="#F2F2F2"/>
<path d="M26.6169 33.2002H28.317V9.3999H29.917V33.2002H30.817V9.3999H32.417V33.2002H34.1169V0H26.6169V33.2002V33.2002Z" fill="#F2F2F2"/>
<path d="M34.917 33.2002H36.6169V14.2998H38.217V33.2002H39.1169V14.2998H40.717V33.2002H42.417V9.3999H34.917V33.2002V33.2002Z" fill="#F2F2F2"/>
<path d="M0.816895 9.3999V33.2002H2.51691V14.2998H4.11688V33.2002H4.71692H5.11688V14.2998H6.71692V33.2002H7.31689H8.41693V14.2998H10.0169V33.2002H11.0169V14.2998H12.6169V33.2002H14.1169H14.2169H14.3169V14.2998H15.9169V33.2002H16.9169V14.2998H18.5169V33.2002H20.2169V14.2998H21.8169V33.2002H22.8169V14.2998H24.4169V33.2002H26.1169V9.3999H0.816895Z" fill="#F2F2F2"/>
<path d="M103.917 33.2002H105.617V9.3999H107.217V33.2002H108.117V9.3999H109.717V33.2002H111.417V0H103.917V33.2002V33.2002Z" fill="#F2F2F2"/>
<path d="M95.7169 33.2002H97.4169V14.2998H99.0169V33.2002H99.9169V14.2998H101.517V33.2002H103.217V9.3999H95.7169V33.2002V33.2002Z" fill="#F2F2F2"/>
<path d="M112.217 9.3999V33.2002H113.917V14.2998H115.517V33.2002H116.517V14.2998H118.117V33.2002H119.817V14.2998H121.417V33.2002H122.417V14.2998H124.017V33.2002H124.117H124.217H125.717V14.2998H127.317V33.2002H128.317V14.2998H129.917V33.2002H131.017H131.617V14.2998H133.217V33.2002H133.617H134.217V14.2998H135.817V33.2002H137.517V9.3999H112.217Z" fill="#F2F2F2"/>
<path d="M137.317 36.2998H0.916992V39.1001H137.317V36.2998Z" fill="#203A8F"/>
<path d="M137.317 33.3999H0.916992V36.2002H137.317V33.3999Z" fill="#F2F2F2"/>
<path d="M137.317 39.1001H0.916992V41.8999H137.317V39.1001Z" fill="#CD1F1C"/>
<path d="M24.1169 54.5L14.017 71.7998L3.81696 54.5H0.916992V79.1001H4.31696V61.2998L13.217 76.1001H14.817L23.717 61.2002V79.1001H27.1169V54.5H24.1169ZM33.6169 54.5V79.1001H37.1169V57.6001H46.517V54.5H33.6169ZM70.317 54.5L55.817 73.5V54.5H52.317V79.1001H55.517L70.1169 60.2002V79.1001H73.517V54.5H70.317Z" fill="#F2F2F2"/>
<path d="M106.217 79.1001V54.5H103.317L93.2169 71.7998L82.9169 54.5H80.0168V79.1001H83.4169V61.2998L92.3168 76.1001H93.9169L102.817 61.2002V79.1001H106.217Z" fill="#F2F2F2"/>
<path d="M137.317 87.7002H130.817V88.3999H133.717V95.7998H134.517V88.3999H137.317V87.7002V87.7002ZM120.617 95.1001V92.1001H124.817V91.3999H120.617V88.5H125.317V87.7998H119.817V95.8999H125.517V95.2002H120.617V95.1001ZM113.617 87.7002H107.117V88.3999H109.917V95.7998H110.717V88.3999H113.517V87.7002H113.617ZM94.1169 95.8999H94.9169L100.117 89.2002V95.8999H100.917V87.7998H100.117L94.9169 94.5V87.7998H94.1169V95.8999ZM84.7169 95.8999C85.3169 95.8999 85.8169 95.8001 86.4169 95.6001C86.9169 95.4001 87.3169 95.1002 87.7169 94.7002L87.2169 94.2002C86.9169 94.5002 86.5169 94.7999 86.1169 94.8999C85.7169 95.0999 85.3169 95.1001 84.8169 95.1001C84.2169 95.1001 83.6169 95.0002 83.0169 94.7002C82.5169 94.4002 82.1169 94 81.8169 93.5C81.5169 93 81.4169 92.3998 81.4169 91.7998C81.4169 91.1998 81.5169 90.6001 81.8169 90.1001C82.1169 89.6001 82.5169 89.1999 83.0169 88.8999C83.5169 88.5999 84.1169 88.5 84.8169 88.5C85.2169 88.5 85.7169 88.6002 86.1169 88.7002C86.5169 88.9002 86.9169 89.0999 87.2169 89.3999L87.7169 88.8999C87.3169 88.4999 86.9169 88.2 86.4169 88C85.9169 87.8 85.3169 87.7002 84.7169 87.7002C83.9169 87.7002 83.2169 87.9002 82.5169 88.2002C81.9169 88.5002 81.3169 89.0002 81.0169 89.7002C80.6169 90.3002 80.4169 91.0998 80.4169 91.7998C80.4169 92.4998 80.6169 93.2999 81.0169 93.8999C81.4169 94.4999 81.9169 94.9999 82.5169 95.3999C83.2169 95.6999 83.9169 95.8999 84.7169 95.8999ZM71.3169 92.5H69.1169V88.3999H71.3169C72.0169 88.3999 72.6169 88.4999 73.1169 88.8999C73.3169 89.0999 73.5169 89.3001 73.6169 89.6001C73.7169 89.9001 73.8169 90.0999 73.7169 90.3999C73.7169 90.6999 73.7169 91.0002 73.6169 91.2002C73.5169 91.5002 73.3169 91.6999 73.1169 91.8999C72.6169 92.3999 71.9169 92.6 71.3169 92.5ZM71.3169 87.7002H68.3169V95.7998H69.2169V93.2002H71.4169C72.3169 93.2002 73.1169 93 73.8169 92.5C74.1169 92.3 74.3169 91.9001 74.5169 91.6001C74.7169 91.2001 74.7169 90.9 74.7169 90.5C74.7169 90.1 74.6169 89.6999 74.5169 89.3999C74.3169 88.9999 74.1169 88.7 73.8169 88.5C73.0169 87.9 72.2169 87.7002 71.3169 87.7002ZM56.8169 95.1001V92.1001H61.0169V91.3999H56.8169V88.5H61.5169V87.7998H56.0169V95.8999H61.7169V95.2002L56.8169 95.1001ZM46.2169 95.1001H43.5169V92H46.2169C47.6169 92 48.3169 92.5 48.3169 93.5C48.4169 94.6 47.7169 95.1001 46.2169 95.1001ZM43.5169 88.3999H46.0169C46.5169 88.3999 47.0169 88.4998 47.4169 88.7998C47.6169 88.8998 47.7169 89.0998 47.8169 89.2998C47.9169 89.4998 47.9169 89.6999 47.9169 89.8999C47.9169 90.0999 47.9169 90.3 47.8169 90.5C47.7169 90.7 47.6169 90.9 47.4169 91C47.0169 91.3 46.5169 91.3999 46.0169 91.3999H43.5169V88.3999ZM47.5169 91.6001C47.9169 91.5001 48.2169 91.1999 48.5169 90.8999C48.7169 90.5999 48.9169 90.2002 48.8169 89.7002C48.8169 89.4002 48.8169 89.0998 48.6169 88.7998C48.5169 88.4998 48.3169 88.3001 48.0169 88.1001C47.4169 87.7001 46.7169 87.5001 46.0169 87.6001H42.6169V95.7002H46.2169C47.0169 95.8002 47.7169 95.6001 48.4169 95.1001C48.8169 94.7001 49.1169 94.2002 49.1169 93.7002C49.2169 93.2002 49.0169 92.6002 48.7169 92.2002C48.4169 91.9002 48.0169 91.7001 47.5169 91.6001ZM28.5169 95.7998H29.3169L34.5169 89.1001V95.7998H35.3169V87.7002H34.5169L29.3169 94.3999V87.7002H28.4169L28.5169 95.7998ZM20.2169 87.7002V91.2998H15.1169V87.7002H14.2169V95.7998H15.1169V92.1001H20.2169V95.7998H21.1169V87.7002H20.2169ZM7.41693 87.7002L4.51691 93.2002L1.71692 87.7002H0.816895L4.11688 93.8999L3.91693 94.2998C3.81693 94.5998 3.61693 94.7999 3.41693 94.8999C3.21693 95.0999 2.91688 95.1001 2.61688 95.1001C2.31688 95.1001 2.11689 94.9999 1.81689 94.8999L1.61688 95.6001C1.91688 95.7001 2.31688 95.7998 2.61688 95.7998C3.01688 95.7998 3.41689 95.6999 3.81689 95.3999C4.21689 95.0999 4.51692 94.7998 4.71692 94.2998L8.41693 87.5H7.41693V87.7002Z" fill="#F2F2F2"/>
<path d="M124.317 76.2002C123.017 76.2002 121.817 76.0001 120.617 75.6001C119.417 75.1001 118.417 74.4001 117.517 73.6001C116.617 72.8001 115.917 71.7 115.417 70.5C114.917 69.3 114.717 68.0998 114.717 66.7998C114.717 61.3998 118.817 57.2998 124.317 57.2998C126.817 57.2998 129.217 58.3001 131.017 60.1001C132.817 61.9001 133.817 64.2998 133.817 66.7998C133.817 69.2998 132.817 71.7 131.017 73.5C129.217 75.2 126.817 76.2002 124.317 76.2002ZM137.317 66.7998C137.317 59.5998 131.817 54.2002 124.317 54.2002C116.817 54.2002 111.217 59.5998 111.217 66.7998C111.217 73.9998 116.717 79.3999 124.317 79.3999C131.917 79.2999 137.317 73.9998 137.317 66.7998Z" fill="#F2F2F2"/>
</svg>
