<svg width="232" height="65" viewBox="0 0 232 65" fill="none" xmlns="http://www.w3.org/2000/svg">
<path fill-rule="evenodd" clip-rule="evenodd" d="M40.917 5L28.417 33.2002L22.817 21.6001H0.116943L20.917 65L45.1169 10.3999H54.317L38.817 45.3999H45.417L63.417 4.8999H40.917V5ZM20.817 50.3999L9.51697 27H18.917L25.317 40.2998L20.817 50.3999Z" fill="#F2F2F2"/>
<path fill-rule="evenodd" clip-rule="evenodd" d="M71.7169 16.2002H74.6169C75.8169 16.2002 76.717 15.9002 77.317 15.2002C77.917 14.6002 78.2169 13.7001 78.2169 12.6001C78.2169 12.1001 78.117 11.7002 78.017 11.2002C77.917 10.8002 77.617 10.5001 77.317 10.1001C77.017 9.8001 76.6169 9.4999 76.2169 9.3999C75.7169 9.1999 75.2169 9.2002 74.6169 9.2002H72.6169V6.1001H77.517V4.6001H71.017V16.1001L71.7169 16.2002ZM72.517 10.7002H74.2169C75.0169 10.7002 75.617 10.9002 75.917 11.2002C76.317 11.5002 76.417 12.0998 76.417 12.7998C76.417 13.0998 76.417 13.3001 76.317 13.6001C76.217 13.9001 76.117 14.1002 76.017 14.2002C75.817 14.4002 75.617 14.5001 75.317 14.6001C75.017 14.7001 74.717 14.7998 74.317 14.7998H72.417V10.7002H72.517Z" fill="#F2F2F2"/>
<path fill-rule="evenodd" clip-rule="evenodd" d="M81.2169 16.1001C81.5169 16.0001 81.817 15.8 82.017 15.5C82.317 15.2 82.5169 14.7998 82.6169 14.2998C82.8169 13.7998 82.917 13.0999 83.017 12.3999L83.1169 11.5C83.1169 11 83.2169 10.5998 83.2169 10.2998C83.2169 9.8998 83.217 9.3998 83.317 8.7998C83.317 8.3998 83.317 7.9002 83.317 7.2002V6.2998H86.417V16.2998H88.017V4.7998H81.817V7.2002C81.817 7.6002 81.817 8.0998 81.817 8.7998C81.817 9.2998 81.8169 9.7998 81.7169 10.2998C81.7169 10.5998 81.7169 11.1 81.6169 11.5L81.517 12.3999C81.517 12.8999 81.417 13.3001 81.317 13.6001C81.217 13.9001 81.117 14.1999 81.017 14.3999C80.917 14.5999 80.7169 14.6998 80.6169 14.7998C80.4169 14.8998 80.3169 14.8999 80.1169 14.8999C79.9169 14.8999 79.617 14.8998 79.417 14.7998V16.2002C79.717 16.3002 80.0169 16.3999 80.2169 16.3999C80.5169 16.2999 80.8169 16.2001 81.2169 16.1001Z" fill="#F2F2F2"/>
<path fill-rule="evenodd" clip-rule="evenodd" d="M92.1169 13.5H96.017L96.817 16.2002H98.6169L95.1169 4.7002H93.417L89.7169 16.2002H91.417L92.1169 13.5ZM94.1169 6.7998L95.6169 12H92.517L94.1169 6.7998Z" fill="#F2F2F2"/>
<path fill-rule="evenodd" clip-rule="evenodd" d="M101.917 6.2002H106.517V4.7002H100.317V16.2002H101.917V6.2002Z" fill="#F2F2F2"/>
<path fill-rule="evenodd" clip-rule="evenodd" d="M111.717 16.3999C113.017 16.3999 114.017 15.9998 114.717 15.2998C115.417 14.4998 115.717 13.5001 115.717 12.1001V8.8999C115.717 7.4999 115.417 6.4002 114.717 5.7002C114.117 4.9002 113.117 4.5 111.717 4.5C110.417 4.5 109.417 4.9002 108.717 5.7002C108.017 6.5002 107.717 7.5999 107.717 8.8999V12.1001C107.717 13.5001 108.017 14.4998 108.717 15.2998C109.417 15.9998 110.417 16.3999 111.717 16.3999ZM109.417 8.7002C109.417 7.8002 109.617 7.1001 110.017 6.6001C110.417 6.1001 111.017 5.8999 111.717 5.8999C113.317 5.8999 114.017 6.8001 114.017 8.6001V12.1001C114.017 13.0001 113.817 13.7001 113.517 14.1001C113.117 14.6001 112.517 14.7998 111.717 14.7998C110.917 14.7998 110.317 14.6001 109.917 14.1001C109.517 13.6001 109.417 13.0001 109.417 12.1001V8.7002Z" fill="#F2F2F2"/>
<path fill-rule="evenodd" clip-rule="evenodd" d="M120.017 16.2002H121.617V6.2002H124.417V4.7002H117.017V6.2002H120.017V16.2002Z" fill="#F2F2F2"/>
<path fill-rule="evenodd" clip-rule="evenodd" d="M131.617 15.8999C132.117 15.6999 132.517 15.5002 132.717 15.2002C133.017 14.9002 133.217 14.6002 133.317 14.2002C133.417 13.8002 133.517 13.4 133.517 13C133.517 12.3 133.317 11.7002 133.017 11.2002C132.717 10.7002 132.217 10.3998 131.617 10.2998C132.117 10.0998 132.517 9.6999 132.717 9.3999C133.017 8.9999 133.117 8.4998 133.117 7.7998C133.117 6.8998 132.817 6.2001 132.317 5.6001C131.717 5.1001 130.817 4.7998 129.517 4.7998H126.117V16.2998H129.717C130.517 16.1998 131.117 16.0999 131.617 15.8999ZM127.817 6.2002H129.417C130.117 6.2002 130.617 6.3001 131.017 6.6001C131.417 6.9001 131.517 7.3 131.517 8C131.517 8.2 131.517 8.5002 131.417 8.7002C131.317 8.9002 131.317 9.1002 131.117 9.2002C131.017 9.4002 130.817 9.5001 130.517 9.6001C130.217 9.7001 129.917 9.7002 129.517 9.7002H127.717V6.2002H127.817ZM127.817 14.7002V11H129.717C130.517 11 131.117 11.2 131.417 11.5C131.717 11.8 131.917 12.2999 131.917 12.8999C131.917 13.5999 131.717 13.9998 131.417 14.2998C131.117 14.5998 130.517 14.7002 129.717 14.7002H127.817V14.7002Z" fill="#F2F2F2"/>
<path fill-rule="evenodd" clip-rule="evenodd" d="M143.217 12.1001V8.8999C143.217 7.4999 142.917 6.4002 142.217 5.7002C141.617 4.9002 140.617 4.5 139.217 4.5C137.917 4.5 136.917 4.9002 136.217 5.7002C135.517 6.5002 135.217 7.5999 135.217 8.8999V12.1001C135.217 13.5001 135.517 14.4998 136.217 15.2998C136.817 16.0998 137.817 16.3999 139.117 16.3999C140.417 16.3999 141.417 15.9998 142.117 15.2998C142.917 14.4998 143.217 13.4001 143.217 12.1001ZM141.617 12.2002C141.617 13.1002 141.417 13.8002 141.117 14.2002C140.717 14.7002 140.117 14.8999 139.317 14.8999C138.517 14.8999 137.917 14.7002 137.517 14.2002C137.117 13.7002 137.017 13.1002 137.017 12.2002V8.7002C137.017 7.8002 137.217 7.1001 137.617 6.6001C138.017 6.1001 138.617 5.8999 139.317 5.8999C140.917 5.8999 141.617 6.8001 141.617 8.6001V12.2002Z" fill="#F2F2F2"/>
<path fill-rule="evenodd" clip-rule="evenodd" d="M152.117 9.7998C152.217 9.2998 152.317 8.7998 152.317 8.2998C152.317 7.7998 152.217 7.2999 152.117 6.8999C152.017 6.3999 151.717 6.1002 151.517 5.7002C151.217 5.4002 150.817 5.0999 150.317 4.8999C149.817 4.6999 149.217 4.6001 148.617 4.6001H145.317V16.1001H146.917V12H148.617C149.217 12 149.817 11.9002 150.317 11.7002C150.817 11.5002 151.217 11.1999 151.417 10.8999C151.817 10.5999 152.017 10.1998 152.117 9.7998ZM150.617 9.2998C150.517 9.5998 150.417 9.8 150.317 10C150.117 10.2 149.917 10.4 149.717 10.5C149.417 10.6 149.017 10.7002 148.617 10.7002H147.017V6.2998H148.517C149.417 6.2998 150.017 6.4999 150.317 6.8999C150.617 7.2999 150.817 7.9001 150.817 8.6001C150.717 8.8001 150.717 9.0998 150.617 9.2998Z" fill="#F2F2F2"/>
<path fill-rule="evenodd" clip-rule="evenodd" d="M155.717 13.2998L155.817 8.8999V4.7002H154.217V16.2002H155.817L160.317 7.6001V16.2002H161.917V4.7002H160.317L155.717 13.2998Z" fill="#F2F2F2"/>
<path fill-rule="evenodd" clip-rule="evenodd" d="M166.717 16.2002H168.317V6.2002H171.117V4.7002H163.717V6.2002H166.717V16.2002Z" fill="#F2F2F2"/>
<path fill-rule="evenodd" clip-rule="evenodd" d="M179.217 14.7002H174.517V11.1001H178.717V9.6001H174.517V6.2002H179.117V4.7002H172.917V16.2002H179.217V14.7002Z" fill="#F2F2F2"/>
<path fill-rule="evenodd" clip-rule="evenodd" d="M187.717 16.2002H189.317V4.7002H183.117V7.1001C183.117 7.5001 183.117 8.0002 183.117 8.7002C183.117 9.2002 183.117 9.7002 183.017 10.2002C183.017 10.5002 183.017 10.9999 182.917 11.3999L182.817 12.2998C182.817 12.7998 182.717 13.2 182.617 13.5C182.517 13.8 182.417 14.0998 182.317 14.2998C182.217 14.4998 182.017 14.6002 181.917 14.7002C181.717 14.8002 181.617 14.7998 181.417 14.7998C181.217 14.7998 180.917 14.8002 180.717 14.7002V16.1001C181.017 16.2001 181.317 16.2998 181.517 16.2998C181.817 16.2998 182.117 16.2001 182.517 16.1001C182.817 16.0001 183.117 15.8 183.317 15.5C183.617 15.2 183.817 14.7998 183.917 14.2998C184.117 13.7998 184.217 13.0999 184.317 12.3999L184.417 11.5C184.517 11 184.517 10.5998 184.517 10.2998C184.517 9.8998 184.517 9.3998 184.617 8.7998C184.617 8.3998 184.617 7.9002 184.617 7.2002V6.2998H187.717V16.2002V16.2002Z" fill="#F2F2F2"/>
<path fill-rule="evenodd" clip-rule="evenodd" d="M198.017 15.1001C198.317 14.8001 198.517 14.3999 198.717 13.8999C198.917 13.3999 198.917 12.8999 198.917 12.3999C198.917 11.8999 198.817 11.4 198.717 11C198.617 10.6 198.317 10.1998 198.017 9.7998C197.717 9.4998 197.317 9.2 196.917 9C196.417 8.8 195.917 8.7002 195.317 8.7002H193.417V4.7002H191.817V16.2002H195.417C196.017 16.2002 196.517 16.0999 197.017 15.8999C197.317 15.6999 197.717 15.4001 198.017 15.1001ZM196.217 14.5C195.917 14.6 195.617 14.7002 195.217 14.7002H193.317V10.1001H195.017C195.817 10.1001 196.417 10.3002 196.717 10.7002C197.117 11.1002 197.217 11.6999 197.217 12.3999C197.217 12.6999 197.217 13.0002 197.117 13.2002C197.017 13.5002 196.917 13.6999 196.817 13.8999C196.717 14.1999 196.517 14.4 196.217 14.5Z" fill="#F2F2F2"/>
<path fill-rule="evenodd" clip-rule="evenodd" d="M202.417 11H206.817V16.2002H208.417V4.7002H206.817V9.5H202.417V4.7002H200.817V16.2002H202.417V11Z" fill="#F2F2F2"/>
<path fill-rule="evenodd" clip-rule="evenodd" d="M216.917 9.7998C216.617 9.4998 216.217 9.2 215.817 9C215.317 8.8 214.817 8.7002 214.217 8.7002H212.517V4.7002H210.917V16.2002H214.317C214.917 16.2002 215.417 16.0999 215.917 15.8999C216.417 15.6999 216.717 15.4001 217.017 15.1001C217.317 14.8001 217.517 14.3999 217.717 13.8999C217.817 13.3999 217.917 12.8999 217.917 12.3999C217.917 11.8999 217.817 11.4 217.717 11C217.517 10.5 217.217 10.0998 216.917 9.7998ZM216.117 13.2998C216.017 13.5998 215.917 13.8 215.817 14C215.617 14.2 215.417 14.4 215.117 14.5C214.817 14.6 214.517 14.7002 214.117 14.7002H212.517V10.1001H214.017C214.817 10.1001 215.417 10.3002 215.717 10.7002C216.117 11.1002 216.217 11.6999 216.217 12.3999C216.217 12.7999 216.217 12.9998 216.117 13.2998Z" fill="#F2F2F2"/>
<path d="M220.817 4.7002H219.217V16.2002H220.817V4.7002Z" fill="#F2F2F2"/>
<path fill-rule="evenodd" clip-rule="evenodd" d="M227.117 3.3999C227.917 3.3999 228.517 3.2002 228.917 2.7002C229.317 2.3002 229.517 1.6999 229.517 0.899902H228.217C228.217 1.3999 228.117 1.6999 227.817 1.8999C227.617 2.0999 227.317 2.2002 227.017 2.2002C226.717 2.2002 226.417 2.0999 226.217 1.8999C226.017 1.6999 225.817 1.3999 225.817 0.899902H224.617C224.617 1.5999 224.817 2.2002 225.217 2.7002C225.717 3.2002 226.317 3.3999 227.117 3.3999Z" fill="#F2F2F2"/>
<path fill-rule="evenodd" clip-rule="evenodd" d="M229.417 4.7002L224.817 13.2998V8.8999V4.7002H223.217V16.2002H224.817L229.417 7.6001V16.2002H231.017V4.7002H229.417Z" fill="#F2F2F2"/>
<path fill-rule="evenodd" clip-rule="evenodd" d="M81.7169 24.3999C81.7169 22.8999 81.3169 21.8 80.6169 21C79.8169 20.3 78.717 19.8999 77.317 19.8999H77.1169V18.7002H75.517V19.8999H75.317C73.817 19.8999 72.717 20.3 72.017 21C71.217 21.7 70.917 22.7999 70.917 24.3999V25.5C70.917 27 71.317 28.0998 72.017 28.7998C72.817 29.4998 73.917 29.8999 75.317 29.8999H75.517V31.2002H77.1169V29.8999H77.317C78.717 29.8999 79.8169 29.4998 80.6169 28.7998C81.4169 28.0998 81.7169 27 81.7169 25.5V24.3999ZM75.417 28.5H75.2169C74.7169 28.5 74.317 28.3998 74.017 28.2998C73.617 28.1998 73.3169 27.9998 73.1169 27.7998C72.9169 27.5998 72.7169 27.2999 72.6169 26.8999C72.5169 26.4999 72.417 26 72.417 25.5V24.2002C72.417 23.6002 72.5169 23.1998 72.6169 22.7998C72.7169 22.3998 72.9169 22.0999 73.2169 21.8999C73.5169 21.6999 73.8169 21.4999 74.1169 21.3999C74.4169 21.2999 74.817 21.2998 75.317 21.2998H75.517V28.5H75.417ZM80.1169 25.6001C80.1169 26.1001 80.017 26.6 79.917 27C79.817 27.4 79.617 27.6999 79.317 27.8999C79.117 28.0999 78.817 28.2999 78.417 28.3999C78.017 28.4999 77.6169 28.6001 77.2169 28.6001H77.017V21.5H77.2169C77.7169 21.5 78.117 21.5001 78.417 21.6001C78.717 21.7001 79.017 21.9001 79.317 22.1001C79.517 22.3001 79.717 22.6 79.817 23C79.917 23.4 80.017 23.7999 80.017 24.3999V25.6001H80.1169Z" fill="#F2F2F2"/>
<path fill-rule="evenodd" clip-rule="evenodd" d="M91.417 23.3999C91.417 21.9999 91.117 20.9002 90.417 20.2002C89.717 19.4002 88.817 19 87.417 19C86.117 19 85.117 19.4002 84.417 20.2002C83.717 21.0002 83.417 22.0999 83.417 23.3999V26.6001C83.417 28.0001 83.717 28.9998 84.417 29.7998C85.017 30.5998 86.017 30.8999 87.317 30.8999C88.617 30.8999 89.617 30.4998 90.317 29.7998C91.017 28.9998 91.317 28.0001 91.317 26.6001V23.3999H91.417ZM89.7169 26.7002C89.7169 27.6002 89.5169 28.3002 89.2169 28.7002C88.8169 29.2002 88.217 29.3999 87.417 29.3999C86.617 29.3999 86.0169 29.2002 85.6169 28.7002C85.2169 28.2002 85.1169 27.6002 85.1169 26.7002V23.2002C85.1169 22.3002 85.3169 21.6001 85.7169 21.1001C86.1169 20.6001 86.717 20.3999 87.417 20.3999C89.017 20.3999 89.7169 21.3001 89.7169 23.1001V26.7002Z" fill="#F2F2F2"/>
<path fill-rule="evenodd" clip-rule="evenodd" d="M95.1169 19.2002H93.517V30.7002H95.1169V25.6001H99.6169V30.7002H101.217V19.2002H99.6169V24H95.1169V19.2002Z" fill="#F2F2F2"/>
<path fill-rule="evenodd" clip-rule="evenodd" d="M113.017 32.7002V29.1001H111.517V19.1001H105.517V21.6001C105.517 22.5001 105.517 23.1 105.517 23.5C105.517 24.3 105.517 24.7999 105.417 24.8999C105.417 25.3999 105.317 25.6999 105.317 25.8999C105.317 26.0999 105.217 26.4002 105.117 26.7002C105.017 27.1002 104.817 27.6 104.617 28C104.417 28.4 104.217 28.8 103.917 29H102.917V32.6001H104.417V30.6001H111.617V32.6001H113.017V32.7002ZM109.917 29.2002H105.717C105.817 29.0002 106.017 28.6998 106.217 28.2998C106.417 27.8998 106.517 27.5 106.617 27C106.617 26.8 106.717 26.5001 106.717 26.1001C106.817 25.5001 106.817 25.1 106.817 25C106.817 24.9 106.817 24.6999 106.817 24.3999C106.817 24.0999 106.817 23.9002 106.817 23.7002C106.817 23.4002 106.817 22.8 106.817 22V20.8999H109.717V29.2002H109.917Z" fill="#F2F2F2"/>
<path fill-rule="evenodd" clip-rule="evenodd" d="M126.417 24.7002C126.917 24.5002 127.317 24.1998 127.617 23.7998C127.917 23.3998 128.017 22.8998 128.017 22.2998C128.017 21.3998 127.717 20.6001 127.117 20.1001C126.517 19.6001 125.617 19.2998 124.217 19.2998H120.417V30.7998H124.417C125.117 30.7998 125.717 30.7 126.217 30.5C126.717 30.3 127.117 30.0998 127.417 29.7998C127.717 29.4998 127.917 29.0998 128.017 28.7998C128.117 28.3998 128.217 28.0001 128.217 27.6001C128.117 26.0001 127.517 25.0002 126.417 24.7002ZM122.717 21.1001H124.017C124.517 21.1001 124.917 21.1999 125.217 21.3999C125.517 21.5999 125.617 22 125.617 22.5C125.617 22.9 125.517 23.3001 125.317 23.6001C125.117 23.9001 124.717 24 124.217 24H122.817V21.1001H122.717ZM125.417 28.3999C125.217 28.5999 124.817 28.7998 124.217 28.7998H122.817V25.7998H124.317C124.917 25.7998 125.317 25.9001 125.517 26.1001C125.717 26.3001 125.917 26.7002 125.917 27.2002C125.817 27.8002 125.617 28.1999 125.417 28.3999Z" fill="#F2F2F2"/>
<path fill-rule="evenodd" clip-rule="evenodd" d="M131.617 21.8999C131.617 22.5999 131.617 23.0999 131.617 23.3999C131.617 23.8999 131.617 24.2998 131.517 24.7998C131.517 24.9998 131.517 25.1999 131.517 25.3999C131.517 25.6999 131.517 25.7999 131.517 25.8999C131.517 26.1999 131.517 26.4002 131.417 26.7002C131.317 27.5002 131.117 28.0998 130.917 28.2998C130.717 28.5998 130.417 28.7002 130.217 28.7002C130.017 28.7002 129.717 28.7001 129.517 28.6001V30.6001C129.717 30.7001 129.817 30.7002 130.017 30.7002C130.217 30.7002 130.417 30.7002 130.517 30.7002C130.917 30.7002 131.317 30.6 131.617 30.5C131.917 30.4 132.217 30.0999 132.517 29.8999C132.717 29.5999 132.917 29.2002 133.117 28.7002C133.317 28.2002 133.417 27.4998 133.517 26.7998C133.617 26.2998 133.617 25.6002 133.717 24.7002C133.817 23.9002 133.817 22.9999 133.817 21.8999V21.2002H136.317V30.7002H138.617V19.2002H131.617V21.8999Z" fill="#F2F2F2"/>
<path fill-rule="evenodd" clip-rule="evenodd" d="M143.617 19.2002L140.017 30.7002H142.317L142.917 28.3999H146.217L146.817 30.7002H149.417L146.117 19.2002H143.617ZM143.517 26.6001L144.717 22L145.817 26.6001H143.517Z" fill="#F2F2F2"/>
<path fill-rule="evenodd" clip-rule="evenodd" d="M159.817 19.2002H152.917V21.8999C152.917 22.5999 152.917 23.0999 152.917 23.3999C152.917 23.5999 152.917 23.8001 152.917 24.1001C152.917 24.4001 152.917 24.5001 152.917 24.6001C152.917 24.8001 152.917 25.1 152.817 25.5C152.817 25.8 152.717 26.1002 152.717 26.2002C152.617 26.8002 152.417 27.2001 152.317 27.6001C152.117 28.0001 151.917 28.3001 151.717 28.6001H150.717V33.3999H152.717V30.6001H159.417V33.3999H161.417V28.6001H160.017V19.2002H159.817ZM157.517 28.7002H154.017C154.217 28.4002 154.317 28.0998 154.417 27.7998C154.617 27.3998 154.717 27 154.817 26.5C154.917 26 155.017 25.4001 155.017 24.6001C155.117 23.8001 155.117 22.8999 155.117 21.8999V21.1001H157.517V28.7002V28.7002Z" fill="#F2F2F2"/>
<path fill-rule="evenodd" clip-rule="evenodd" d="M165.017 26.8999L165.117 23.1001V19.2002H162.917V30.7002H165.117L169.017 23.1001V26.5V30.7002H171.217V19.2002H168.917L165.017 26.8999Z" fill="#F2F2F2"/>
<path fill-rule="evenodd" clip-rule="evenodd" d="M181.017 19.2002L178.317 24.7002L175.617 19.2002H173.417V30.7002H175.617V26.8999L175.517 23.2002L177.417 27.2998H179.117L181.017 23V27V30.7002H183.117V19.2002H181.017Z" fill="#F2F2F2"/>
<path fill-rule="evenodd" clip-rule="evenodd" d="M187.517 26.8999L187.617 23.1001V19.2002H185.417V30.7002H187.617L191.617 23.1001L191.517 26.5V30.7002H193.717V19.2002H191.517L187.517 26.8999Z" fill="#F2F2F2"/>
<path fill-rule="evenodd" clip-rule="evenodd" d="M202.617 20.2998C202.217 19.8998 201.817 19.7 201.417 19.5C200.917 19.3 200.317 19.2002 199.617 19.2002H195.917V30.7002H198.217V27H199.617C200.317 27 200.817 26.9002 201.317 26.7002C201.817 26.5002 202.217 26.1999 202.517 25.8999C202.817 25.4999 203.017 25.1002 203.217 24.7002C203.417 24.2002 203.417 23.7001 203.417 23.1001C203.417 22.6001 203.317 22.0001 203.217 21.6001C203.217 21.1001 202.917 20.6998 202.617 20.2998ZM201.117 23.8999C201.017 24.0999 201.017 24.3 200.817 24.5C200.717 24.7 200.517 24.7999 200.217 24.8999C200.017 24.9999 199.717 25 199.217 25H198.217V21.1001H199.217C200.017 21.1001 200.517 21.3001 200.717 21.6001C201.017 22.0001 201.117 22.4001 201.117 23.1001C201.217 23.5001 201.217 23.6999 201.117 23.8999Z" fill="#F2F2F2"/>
<path fill-rule="evenodd" clip-rule="evenodd" d="M207.217 19.2002L203.617 30.7002H205.917L206.517 28.3999H209.817L210.417 30.7002H213.017L209.717 19.2002H207.217ZM207.117 26.6001L208.317 22L209.417 26.6001H207.117Z" fill="#F2F2F2"/>
<path fill-rule="evenodd" clip-rule="evenodd" d="M70.917 45.2002H73.2169V35.7002H76.817V45.2002H79.2169V33.7002H70.917V45.2002Z" fill="#F2F2F2"/>
<path fill-rule="evenodd" clip-rule="evenodd" d="M85.417 33.5C84.017 33.5 83.017 33.9002 82.317 34.7002C81.617 35.5002 81.317 36.6001 81.317 38.1001V40.8999C81.317 42.3999 81.617 43.5998 82.317 44.2998C83.017 45.0998 84.017 45.3999 85.417 45.3999C86.817 45.3999 87.817 44.9998 88.517 44.2998C89.217 43.5998 89.517 42.3999 89.517 40.8999V38.1001C89.517 36.6001 89.217 35.5002 88.517 34.7002C87.717 33.9002 86.717 33.5 85.417 33.5ZM87.1169 41.1001C87.1169 41.9001 87.0169 42.4999 86.7169 42.8999C86.4169 43.2999 86.017 43.5 85.317 43.5C84.617 43.5 84.117 43.2999 83.917 42.8999C83.717 42.4999 83.517 41.9001 83.517 41.1001V38C83.517 37.2 83.617 36.6001 83.917 36.1001C84.217 35.7001 84.617 35.5 85.317 35.5C86.017 35.5 86.4169 35.7001 86.7169 36.1001C87.0169 36.5001 87.1169 37.1 87.1169 38V41.1001Z" fill="#F2F2F2"/>
<path fill-rule="evenodd" clip-rule="evenodd" d="M98.417 33.7002H90.817V35.7002H93.417V45.2002H95.817V35.7002H98.417V33.7002Z" fill="#F2F2F2"/>
<path fill-rule="evenodd" clip-rule="evenodd" d="M101.617 33.7002L98.017 45.2002H100.317L100.917 42.8999H104.217L104.817 45.2002H107.417L104.117 33.7002H101.617ZM101.517 41.1001L102.717 36.5L103.817 41.1001H101.517Z" fill="#F2F2F2"/>
<path fill-rule="evenodd" clip-rule="evenodd" d="M115.017 38.3999H111.317V33.7002H109.017V45.2002H111.317V40.3999H115.017V45.2002H117.417V33.7002H115.017V38.3999Z" fill="#F2F2F2"/>
<path fill-rule="evenodd" clip-rule="evenodd" d="M121.817 41.3999V37.7002V33.7002H119.617V45.2002H121.817L125.817 37.6001L125.717 41.1001V45.2002H127.917V33.7002H125.717L121.817 41.3999Z" fill="#F2F2F2"/>
<path fill-rule="evenodd" clip-rule="evenodd" d="M136.217 38.3999H132.517V33.7002H130.217V45.2002H132.517V40.3999H136.217V45.2002H138.617V33.7002H136.217V38.3999Z" fill="#F2F2F2"/>
<path fill-rule="evenodd" clip-rule="evenodd" d="M143.617 33.7002L140.017 45.2002H142.317L142.917 42.8999H146.217L146.817 45.2002H149.417L146.117 33.7002H143.617ZM143.517 41.1001L144.717 36.5L145.817 41.1001H143.517Z" fill="#F2F2F2"/>
</svg>
