<svg width="252" height="80" viewBox="0 0 252 80" fill="none" xmlns="http://www.w3.org/2000/svg">
<path d="M40.3169 14.2002C44.2381 14.2002 47.4169 11.0213 47.4169 7.1001C47.4169 3.17888 44.2381 0 40.3169 0C36.3957 0 33.2169 3.17888 33.2169 7.1001C33.2169 11.0213 36.3957 14.2002 40.3169 14.2002Z" fill="#F2F2F2"/>
<path d="M56.717 12.7002C54.217 10.2002 50.217 10.2002 47.817 12.7002L40.417 20.1001L33.017 12.7002C30.517 10.2002 26.517 10.2002 24.117 12.7002C21.717 15.2002 21.617 19.2001 24.117 21.6001L40.517 38L56.917 21.6001C59.117 19.2001 59.117 15.2002 56.717 12.7002Z" fill="#F2F2F2"/>
<path d="M73.217 47.1001C77.1382 47.1001 80.317 43.9212 80.317 40C80.317 36.0788 77.1382 32.8999 73.217 32.8999C69.2958 32.8999 66.1169 36.0788 66.1169 40C66.1169 43.9212 69.2958 47.1001 73.217 47.1001Z" fill="#F2F2F2"/>
<path d="M67.6169 56.3997C70.1169 53.8997 70.1169 49.8998 67.6169 47.4998L60.2169 40.0999L67.6169 32.7C70.1169 30.2 70.1169 26.1996 67.6169 23.7996C65.1169 21.3996 61.1169 21.2996 58.7169 23.7996L42.3169 40.2L58.7169 56.5999C61.1169 58.8999 65.1169 58.8997 67.6169 56.3997Z" fill="#F2F2F2"/>
<path d="M40.3169 80C44.2381 80 47.4169 76.8211 47.4169 72.8999C47.4169 68.9787 44.2381 65.7998 40.3169 65.7998C36.3957 65.7998 33.2169 68.9787 33.2169 72.8999C33.2169 76.8211 36.3957 80 40.3169 80Z" fill="#F2F2F2"/>
<path d="M23.9169 67.2998C26.4169 69.7998 30.4169 69.7998 32.8169 67.2998L40.2169 59.8999L47.6169 67.2998C50.1169 69.7998 54.1169 69.7998 56.5169 67.2998C59.0169 64.7998 59.0169 60.7999 56.5169 58.3999L40.1169 42L23.7169 58.3999C21.4169 60.7999 21.4169 64.7998 23.9169 67.2998Z" fill="#F2F2F2"/>
<path d="M7.4169 47.1001C11.3381 47.1001 14.5169 43.9212 14.5169 40C14.5169 36.0788 11.3381 32.8999 7.4169 32.8999C3.49568 32.8999 0.316895 36.0788 0.316895 40C0.316895 43.9212 3.49568 47.1001 7.4169 47.1001Z" fill="#F2F2F2"/>
<path d="M13.0168 23.6001C10.5168 26.1001 10.5168 30.1 13.0168 32.5L20.4168 39.8999L13.0168 47.2998C10.5168 49.7998 10.5168 53.8002 13.0168 56.2002C15.5168 58.6002 19.5168 58.7002 21.9168 56.2002L38.3168 39.7998L21.9168 23.3999C19.4168 21.0999 15.4168 21.1001 13.0168 23.6001Z" fill="#F2F2F2"/>
<path d="M96.8168 28.7002L99.4169 33H100.917L103.617 28.7002V35.5H105.817V24.2998H103.817L100.217 30.2002L96.6168 24.2998H94.5168V35.5H96.8168V28.7002Z" fill="#F2F2F2"/>
<path d="M115.317 33.8999L113.717 32.7002C113.317 33.4002 112.617 33.7002 111.717 33.7002C111.217 33.7002 110.717 33.5998 110.317 33.2998C109.917 32.9998 109.717 32.6001 109.617 32.1001H115.517C115.517 32.0001 115.517 31.6999 115.517 31.3999C115.517 30.1999 115.117 29.2001 114.417 28.6001C113.717 27.9001 112.717 27.6001 111.717 27.6001C110.517 27.6001 109.517 27.9998 108.817 28.7998C108.017 29.5998 107.617 30.6002 107.617 31.7002C107.617 32.9002 108.017 33.9002 108.817 34.7002C109.617 35.5002 110.617 35.7998 111.817 35.7998C113.317 35.5998 114.517 34.9999 115.317 33.8999ZM110.417 29.6001C110.817 29.4001 111.217 29.2998 111.617 29.2998C112.017 29.2998 112.417 29.4001 112.717 29.6001C113.017 29.8001 113.217 30.2001 113.317 30.6001H109.617C109.817 30.1001 110.017 29.8001 110.417 29.6001Z" fill="#F2F2F2"/>
<path d="M123.317 35.5V32.2998L126.217 35.5H128.817L125.117 31.5L128.317 27.6001H125.817L123.317 30.7998V27.6001H121.117V30.7998L118.617 27.6001H116.117L119.217 31.5L115.617 35.5H118.217L121.117 32.2998V35.5H123.317Z" fill="#F2F2F2"/>
<path d="M136.917 37.3999H138.817V33.6001H137.517V27.7002H130.817V31.6001C130.817 32.9001 130.417 33.6001 129.717 33.6001H129.517V37.3999H131.417V35.5H136.817V37.3999H136.917ZM135.417 33.6001H132.617C132.917 33.1001 133.017 32.5002 133.017 31.7002V29.5H135.417V33.6001Z" fill="#F2F2F2"/>
<path d="M148.017 27.6001H145.617L143.617 32.5L141.417 27.6001H139.117L142.417 35L142.117 35.6001C141.817 36.3001 141.317 36.7002 140.817 36.7002C140.617 36.7002 140.317 36.7001 140.117 36.6001L139.817 38.3999C140.117 38.4999 140.617 38.5 141.017 38.5C141.817 38.5 142.417 38.2999 142.917 37.8999C143.417 37.4999 143.817 36.9 144.217 36L148.017 27.6001Z" fill="#F2F2F2"/>
<path d="M151.317 32.5H154.517V35.5H156.617V27.6001H154.517V30.6001H151.317V27.6001H149.117V35.5H151.317V32.5Z" fill="#F2F2F2"/>
<path d="M162.117 35.6001C162.917 35.6001 163.617 35.2998 164.117 34.7998V35.3999H166.217V27.6001H164.117V28.2002C163.617 27.7002 162.917 27.5 162.117 27.5C161.017 27.5 160.017 27.9002 159.317 28.7002C158.617 29.5002 158.217 30.5001 158.217 31.6001C158.217 32.7001 158.617 33.7 159.317 34.5C160.017 35.2 160.917 35.6001 162.117 35.6001ZM161.017 30C161.417 29.6 161.817 29.3999 162.417 29.3999C163.117 29.3999 163.717 29.7002 164.117 30.2002V32.7998C163.717 33.3998 163.117 33.7002 162.417 33.7002C161.817 33.7002 161.317 33.5001 161.017 33.1001C160.617 32.7001 160.517 32.2001 160.517 31.6001C160.417 31.0001 160.617 30.4 161.017 30Z" fill="#F2F2F2"/>
<path d="M170.417 34.8999C170.917 35.3999 171.617 35.7002 172.417 35.7002C173.517 35.7002 174.517 35.3 175.217 34.5C175.917 33.7 176.317 32.7001 176.317 31.6001C176.317 30.5001 175.917 29.5002 175.217 28.7002C174.517 27.9002 173.517 27.5 172.417 27.5C171.617 27.5 170.917 27.7002 170.417 28.2002V27.6001H168.317V38.5H170.417V34.8999ZM170.417 30.2998C170.817 29.6998 171.417 29.5 172.117 29.5C172.717 29.5 173.217 29.7001 173.517 30.1001C173.917 30.5001 174.017 31.0001 174.017 31.6001C174.017 32.2001 173.817 32.7001 173.517 33.1001C173.117 33.5001 172.717 33.7002 172.117 33.7002C171.417 33.7002 170.817 33.3998 170.417 32.7998V30.2998Z" fill="#F2F2F2"/>
<path d="M181.517 35.6001C182.617 35.6001 183.617 35.1999 184.417 34.3999C185.217 33.5999 185.617 32.6 185.617 31.5C185.617 30.4 185.217 29.4001 184.417 28.6001C183.617 27.8001 182.617 27.3999 181.517 27.3999C180.417 27.3999 179.417 27.8001 178.617 28.6001C177.817 29.4001 177.417 30.4 177.417 31.5C177.417 32.6 177.817 33.5999 178.617 34.3999C179.417 35.1999 180.317 35.6001 181.517 35.6001ZM180.117 30.1001C180.517 29.7001 180.917 29.5 181.517 29.5C182.117 29.5 182.517 29.7001 182.917 30.1001C183.317 30.5001 183.517 31.0001 183.517 31.6001C183.517 32.2001 183.317 32.7001 182.917 33.1001C182.517 33.5001 182.117 33.7002 181.517 33.7002C180.917 33.7002 180.517 33.5001 180.117 33.1001C179.717 32.7001 179.517 32.2001 179.517 31.6001C179.517 31.0001 179.717 30.4001 180.117 30.1001Z" fill="#F2F2F2"/>
<path d="M193.817 37.3999H195.717V33.6001H194.417V27.7002H187.717V31.6001C187.717 32.9001 187.317 33.6001 186.617 33.6001H186.417V37.3999H188.317V35.5H193.717V37.3999H193.817ZM192.317 33.6001H189.517C189.817 33.1001 189.917 32.5002 189.917 31.7002V29.5H192.317V33.6001Z" fill="#F2F2F2"/>
<path d="M199.417 32.5H202.617V35.5H204.717V27.6001H202.617V30.6001H199.417V27.6001H197.217V35.5H199.417V32.5Z" fill="#F2F2F2"/>
<path d="M212.517 34.6001C213.017 34.0001 213.217 33.4002 213.217 32.7002C213.217 32.0002 213.017 31.3998 212.517 30.7998C212.017 30.1998 211.317 30 210.317 30H208.817V27.7002H206.717V35.5H210.317C211.317 35.5 212.017 35.2001 212.517 34.6001ZM208.917 33.6001V31.7998H210.117C210.817 31.7998 211.217 32.1002 211.217 32.7002C211.217 33.3002 210.817 33.6001 210.117 33.6001H208.917V33.6001Z" fill="#F2F2F2"/>
<path d="M216.417 27.6001H214.317V35.3999H216.417V27.6001Z" fill="#F2F2F2"/>
<path d="M226.117 35.5V27.6001H224.117L220.617 32.2998V27.6001H218.517V35.5H220.417L223.917 30.7998V35.5H226.117Z" fill="#F2F2F2"/>
<path d="M222.417 26.8999C223.217 26.8999 223.817 26.6001 224.317 26.1001C224.817 25.6001 225.117 24.9001 225.117 24.1001V24H223.717V24.1001C223.717 24.5001 223.617 24.9002 223.317 25.2002C223.117 25.5002 222.717 25.6001 222.317 25.6001C221.917 25.6001 221.617 25.5002 221.317 25.2002C221.117 24.9002 220.917 24.6001 220.917 24.1001V24H219.517V24.1001C219.517 24.9001 219.817 25.6001 220.317 26.1001C221.017 26.6001 221.617 26.8999 222.417 26.8999Z" fill="#F2F2F2"/>
<path d="M101.817 45H99.3168L96.6168 48.2002V45H94.5168V52.8999H96.6168V49.7002L99.6168 52.8999H102.417L98.6168 48.8999L101.817 45Z" fill="#F2F2F2"/>
<path d="M104.517 49.7998C104.517 50.2998 104.417 50.6999 104.317 50.8999C104.117 51.0999 103.917 51.2002 103.617 51.2002C103.517 51.2002 103.417 51.2002 103.217 51.2002L102.917 53C103.317 53.1 103.717 53.1001 104.017 53.1001C104.717 53.1001 105.317 52.7998 105.917 52.2998C106.417 51.7998 106.717 51.1001 106.717 50.1001V47H109.117V52.8999H111.217V45.1001H104.517V49.7998V49.7998Z" fill="#F2F2F2"/>
<path d="M116.817 49.8999L114.617 45H112.317L115.617 52.3999L115.317 53C115.017 53.7 114.517 54.1001 114.017 54.1001C113.817 54.1001 113.517 54.1 113.317 54L113.017 55.7998C113.317 55.8998 113.817 55.8999 114.217 55.8999C115.017 55.8999 115.617 55.6998 116.117 55.2998C116.617 54.8998 117.017 54.2999 117.417 53.3999L121.217 44.8999H118.817L116.817 49.8999Z" fill="#F2F2F2"/>
<path d="M126.417 45.2002C125.517 45.2002 124.717 45.5 124.117 46C124.217 45.2 124.517 44.6998 125.017 44.2998C125.517 43.8998 126.217 43.6 127.117 43.5L129.417 43.1001L129.117 41.1001L126.717 41.5C125.117 41.8 123.917 42.3999 123.217 43.3999C122.417 44.2999 122.017 45.7998 122.017 47.7998V48.2998C122.017 49.7998 122.317 50.9998 123.017 51.7998C123.717 52.6998 124.717 53.1001 126.017 53.1001C127.217 53.1001 128.117 52.6999 128.917 51.8999C129.717 51.0999 130.117 50.1 130.117 49C130.117 47.9 129.817 47.0999 129.117 46.3999C128.517 45.5999 127.617 45.2002 126.417 45.2002ZM127.417 50.5C127.017 50.9 126.617 51 126.017 51C125.417 51 125.017 50.8 124.617 50.5C124.217 50.1 124.117 49.6 124.117 49C124.117 48.5 124.317 48.0002 124.617 47.7002C125.017 47.3002 125.417 47.1001 126.017 47.1001C126.617 47.1001 127.017 47.3002 127.417 47.7002C127.817 48.1002 127.917 48.5001 127.917 49.1001C128.017 49.6001 127.817 50.1 127.417 50.5Z" fill="#F2F2F2"/>
<path d="M139.417 44.8999C138.617 44.8999 137.917 45.1001 137.417 45.6001V45H135.317V55.8999H137.417V52.2998C137.917 52.7998 138.617 53.1001 139.417 53.1001C140.517 53.1001 141.517 52.6999 142.217 51.8999C142.917 51.0999 143.317 50.1 143.317 49C143.317 47.9 142.917 46.9001 142.217 46.1001C141.517 45.3001 140.617 44.8999 139.417 44.8999ZM140.617 50.3999C140.217 50.7999 139.817 51 139.217 51C138.517 51 137.917 50.7001 137.517 50.1001V47.5C137.917 46.9 138.517 46.7002 139.217 46.7002C139.817 46.7002 140.317 46.8998 140.617 47.2998C141.017 47.6998 141.117 48.1998 141.117 48.7998C141.117 49.4998 140.917 49.9999 140.617 50.3999Z" fill="#F2F2F2"/>
<path d="M150.317 45.6001C149.817 45.1001 149.117 44.8999 148.317 44.8999C147.217 44.8999 146.217 45.3001 145.517 46.1001C144.817 46.9001 144.417 47.9 144.417 49C144.417 50.1 144.817 51.0999 145.517 51.8999C146.217 52.6999 147.217 53.1001 148.317 53.1001C149.117 53.1001 149.817 52.7998 150.317 52.2998V52.8999H152.417V45.1001H150.317V45.6001ZM150.317 50.2002C149.917 50.8002 149.317 51.1001 148.617 51.1001C148.017 51.1001 147.517 50.9 147.217 50.5C146.817 50.1 146.717 49.6 146.717 49C146.717 48.4 146.917 47.9 147.217 47.5C147.617 47.1 148.017 46.8999 148.617 46.8999C149.317 46.8999 149.917 47.2002 150.317 47.7002V50.2002Z" fill="#F2F2F2"/>
<path d="M158.717 45.2002C157.817 45.2002 157.017 45.5 156.417 46C156.517 45.2 156.817 44.6998 157.317 44.2998C157.817 43.8998 158.517 43.6 159.417 43.5L161.717 43.1001L161.417 41.1001L159.017 41.5C157.417 41.8 156.217 42.3999 155.517 43.3999C154.717 44.2999 154.317 45.7998 154.317 47.7998V48.2998C154.317 49.7998 154.617 50.9998 155.317 51.7998C156.017 52.6998 157.017 53.1001 158.317 53.1001C159.517 53.1001 160.417 52.6999 161.217 51.8999C162.017 51.0999 162.417 50.1 162.417 49C162.417 47.9 162.117 47.0999 161.417 46.3999C160.717 45.5999 159.817 45.2002 158.717 45.2002ZM159.717 50.5C159.317 50.9 158.917 51 158.317 51C157.717 51 157.317 50.8 156.917 50.5C156.517 50.1 156.417 49.6 156.417 49C156.417 48.5 156.617 48.0002 156.917 47.7002C157.317 47.3002 157.717 47.1001 158.317 47.1001C158.917 47.1001 159.317 47.3002 159.717 47.7002C160.117 48.1002 160.217 48.5001 160.217 49.1001C160.217 49.6001 160.017 50.1 159.717 50.5Z" fill="#F2F2F2"/>
<path d="M167.617 44.8999C166.517 44.8999 165.517 45.3001 164.717 46.1001C163.917 46.9001 163.517 47.9 163.517 49C163.517 50.1 163.917 51.0999 164.717 51.8999C165.517 52.6999 166.517 53.1001 167.617 53.1001C168.717 53.1001 169.717 52.6999 170.517 51.8999C171.317 51.0999 171.717 50.1 171.717 49C171.717 47.9 171.317 46.9001 170.517 46.1001C169.717 45.2001 168.717 44.8999 167.617 44.8999ZM169.017 50.3999C168.617 50.7999 168.217 51 167.617 51C167.017 51 166.617 50.7999 166.217 50.3999C165.817 49.9999 165.617 49.4999 165.617 48.8999C165.617 48.2999 165.817 47.7999 166.217 47.3999C166.617 46.9999 167.017 46.7998 167.617 46.7998C168.217 46.7998 168.617 46.9999 169.017 47.3999C169.417 47.7999 169.617 48.2999 169.617 48.8999C169.617 49.4999 169.317 49.9999 169.017 50.3999Z" fill="#F2F2F2"/>
<path d="M172.417 46.8999H174.617V52.8999H176.717V46.8999H179.117V45H172.417V46.8999Z" fill="#F2F2F2"/>
<path d="M183.917 44.8999C182.817 44.8999 181.817 45.3001 181.017 46.1001C180.217 46.9001 179.817 47.9 179.817 49C179.817 50.1 180.217 51.0999 181.017 51.8999C181.817 52.6999 182.817 53.1001 183.917 53.1001C185.017 53.1001 186.017 52.6999 186.817 51.8999C187.617 51.0999 188.017 50.1 188.017 49C188.017 47.9 187.617 46.9001 186.817 46.1001C186.017 45.2001 185.017 44.8999 183.917 44.8999ZM185.317 50.3999C184.917 50.7999 184.517 51 183.917 51C183.317 51 182.917 50.7999 182.517 50.3999C182.117 49.9999 181.917 49.4999 181.917 48.8999C181.917 48.2999 182.117 47.7999 182.517 47.3999C182.917 46.9999 183.317 46.7998 183.917 46.7998C184.517 46.7998 184.917 46.9999 185.317 47.3999C185.717 47.7999 185.917 48.2999 185.917 48.8999C185.917 49.4999 185.717 49.9999 185.317 50.3999Z" fill="#F2F2F2"/>
<path d="M196.917 45H190.217V48.8999C190.217 50.1999 189.817 50.8999 189.117 50.8999H188.917V54.7002H190.817V52.7998H196.217V54.7002H198.117V50.8999H196.817V45H196.917ZM194.817 51H192.017C192.317 50.5 192.417 49.9001 192.417 49.1001V46.8999H194.817V51Z" fill="#F2F2F2"/>
<path d="M204.917 45.6001C204.417 45.1001 203.717 44.8999 202.917 44.8999C201.817 44.8999 200.817 45.3001 200.117 46.1001C199.417 46.9001 199.017 47.9 199.017 49C199.017 50.1 199.417 51.0999 200.117 51.8999C200.817 52.6999 201.817 53.1001 202.917 53.1001C203.717 53.1001 204.417 52.7998 204.917 52.2998V52.8999H207.017V45.1001H204.917V45.6001ZM204.917 50.2002C204.517 50.8002 203.917 51.1001 203.217 51.1001C202.617 51.1001 202.117 50.9 201.817 50.5C201.417 50.1 201.317 49.6 201.317 49C201.317 48.4 201.517 47.9 201.817 47.5C202.217 47.1 202.617 46.8999 203.217 46.8999C203.917 46.8999 204.517 47.2002 204.917 47.7002V50.2002Z" fill="#F2F2F2"/>
<path d="M208.317 46.8999H210.517V52.8999H212.617V46.8999H214.917V45H208.317V46.8999Z" fill="#F2F2F2"/>
<path d="M219.817 44.8999C218.617 44.8999 217.617 45.3001 216.917 46.1001C216.117 46.9001 215.717 47.9 215.717 49C215.717 50.2 216.117 51.2 216.917 52C217.717 52.8 218.717 53.1001 219.917 53.1001C221.517 53.1001 222.717 52.4998 223.517 51.2998L221.917 50.1001C221.517 50.8001 220.817 51.1001 219.917 51.1001C219.417 51.1001 218.917 51.0002 218.517 50.7002C218.117 50.4002 217.917 50 217.817 49.5H223.717C223.717 49.4 223.717 49.0998 223.717 48.7998C223.717 47.5998 223.317 46.6 222.617 46C221.817 45.2 220.917 44.8999 219.817 44.8999ZM217.817 48C217.917 47.6 218.117 47.2 218.517 47C218.917 46.8 219.317 46.7002 219.717 46.7002C220.117 46.7002 220.517 46.8 220.817 47C221.117 47.2 221.317 47.6 221.417 48H217.817Z" fill="#F2F2F2"/>
<path d="M226.017 49.7998C226.017 50.2998 225.917 50.6999 225.817 50.8999C225.617 51.0999 225.417 51.2002 225.117 51.2002C225.017 51.2002 224.917 51.2002 224.717 51.2002L224.417 53C224.817 53.1 225.217 53.1001 225.517 53.1001C226.217 53.1001 226.817 52.7998 227.417 52.2998C227.917 51.7998 228.217 51.1001 228.217 50.1001V47H230.617V52.8999H232.717V45.1001H226.017V49.7998Z" fill="#F2F2F2"/>
<path d="M238.417 44.8999C237.217 44.8999 236.217 45.3001 235.517 46.1001C234.717 46.9001 234.317 47.9 234.317 49C234.317 50.2 234.717 51.2 235.517 52C236.317 52.8 237.317 53.1001 238.517 53.1001C240.117 53.1001 241.317 52.4998 242.117 51.2998L240.517 50.1001C240.117 50.8001 239.417 51.1001 238.517 51.1001C238.017 51.1001 237.517 51.0002 237.117 50.7002C236.717 50.4002 236.517 50 236.417 49.5H242.317C242.317 49.4 242.317 49.0998 242.317 48.7998C242.317 47.5998 241.917 46.6 241.217 46C240.417 45.2 239.417 44.8999 238.417 44.8999ZM236.417 48C236.517 47.6 236.717 47.2 237.117 47C237.517 46.8 237.917 46.7002 238.317 46.7002C238.717 46.7002 239.117 46.8 239.417 47C239.717 47.2 239.917 47.6 240.017 48H236.417Z" fill="#F2F2F2"/>
<path d="M249.417 45L245.917 49.6001V45H243.817V52.8999H245.717L249.217 48.2002V52.8999H251.317V45H249.417Z" fill="#F2F2F2"/>
<path d="M247.717 44.2998C248.517 44.2998 249.117 44 249.617 43.5C250.117 43 250.417 42.3 250.417 41.5V41.3999H249.017V41.5C249.017 41.9 248.917 42.3001 248.617 42.6001C248.417 42.9001 248.017 43 247.617 43C247.217 43 246.917 42.9001 246.617 42.6001C246.417 42.3001 246.217 42 246.217 41.5V41.3999H245.017V41.5C245.017 42.3 245.317 43 245.817 43.5C246.317 44 246.917 44.2998 247.717 44.2998Z" fill="#F2F2F2"/>
</svg>
