<svg width="323" height="81" viewBox="0 0 323 81" fill="none" xmlns="http://www.w3.org/2000/svg">
<path d="M58.917 69.9C52.917 65.9 49.217 63.5999 42.117 60.7999C40.217 60.0999 37.817 59.2002 35.917 58.6002C30.717 56.8002 23.617 54.5001 20.017 53.0001C20.217 53.0001 23.317 52.4999 24.917 52.2999L34.017 51.0001C39.517 51.6001 43.817 53.3999 47.617 55.7999L48.217 55.7003C44.017 53.1003 39.317 51.4003 34.117 50.7003L20.117 52.6002C16.117 53.1002 26.717 55.9001 34.717 58.5001C38.517 59.7001 45.617 62.5999 48.217 64.2999L49.917 65.4C53.717 66.7 59.117 69.9003 60.517 73.2003C51.917 70.1003 51.017 69.4001 41.017 68.5001C32.917 67.8001 23.717 68.1999 15.617 68.2999C17.117 67.6999 16.717 67.9999 18.217 67.2999L24.917 64.7999C25.017 64.7999 25.117 64.7003 25.217 64.7003C27.117 63.9003 27.917 63.5002 29.017 63.1002C35.517 62.7002 43.317 64.3003 49.617 65.7003C49.917 65.8003 49.617 65.3003 49.217 65.2003C43.317 63.5003 37.217 62.3001 30.517 62.5001C30.417 62.5001 29.317 62.5002 29.217 62.6002C26.017 63.4002 19.717 66.7002 15.917 67.6002C12.917 68.3002 10.117 67.8001 8.81701 70.5001C7.51701 73.1001 8.617 71.5999 8.617 72.2999C4.917 73.9999 6.71702 74.1 4.51702 75.9C2.81702 75.5 -0.0830021 74.9 0.616998 77.4C21.617 77.4 42.517 77.4 63.517 77.4C65.717 77.4 69.117 77.9002 70.817 77.1002C71.817 76.7002 72.317 76.5001 74.117 76.5001L125.817 76.4C124.917 73.2 123.817 75.4003 122.117 73.7003L119.317 71.9L121.217 71.2999C120.317 69.8999 119.517 69.0001 117.817 69.0001C118.917 67.3001 118.517 68.0001 117.617 66.0001L113.217 65.6002L116.717 64.5001C115.817 63.6001 99.317 58.1002 97.117 57.6002L96.117 57.7003C75.117 58.0003 65.317 60.7999 62.817 64.7999C62.717 64.8999 62.917 65.1 63.117 64.9C66.517 59.8 79.017 58.0999 96.917 57.7999L106.817 61.5001C108.817 62.2001 111.517 62.7003 113.317 63.7003C110.117 65.2003 85.817 64.6999 72.917 68.7999C68.217 70.2999 65.917 72.2 63.017 74.4C62.517 66.6 64.117 68.7001 61.517 63.0001C62.917 61.4001 65.917 59.7002 67.917 57.6002C74.817 50.5002 74.417 52.2999 77.817 49.7999C79.017 48.9999 79.617 47.9 81.317 47.4C84.417 46.5 88.517 46.3 91.517 45.4C94.617 44.4 96.717 42.5 98.817 40.9C101.317 39 104.917 38.7999 107.317 37.2999C110.617 35.1999 111.317 34.7 116.117 34.4C117.817 34.3 119.917 33.7003 121.317 33.7003C123.117 33.6003 124.317 35.1999 126.017 34.2999C125.417 32.3999 122.117 32.1 120.517 30.9C118.317 29.3 117.717 28.4001 113.917 28.5001C114.817 29.1001 114.617 28.7003 114.817 29.7003C112.017 30.8003 110.817 32.4002 107.117 33.1002C105.417 33.4002 103.517 33.6001 101.817 33.0001C101.117 32.7001 100.517 32.3001 99.817 32.0001C98.817 31.6001 98.317 31.6999 97.417 31.2999C97.817 24.7999 97.517 21.2001 101.817 16.0001C105.217 11.8001 102.917 9.60032 97.817 11.2003C96.117 11.7003 94.317 12.4003 93.017 13.7003C95.517 13.0003 99.417 10.6999 101.817 12.2999C102.817 13.5999 98.217 18.7 97.417 20.4C94.817 25.5 97.217 27.2 96.317 31.4H92.217C90.717 30 87.317 23.7 86.817 20.9C88.917 19.4 93.417 19.4002 95.017 17.6002L94.217 17.2999C92.117 16.9999 88.917 19.1999 87.617 18.7999L87.317 18.6002C87.017 18.5002 87.117 18.5003 86.217 18.7003C85.617 14.0003 84.517 12.8001 81.217 11.0001C78.317 9.40012 75.517 8.20032 72.617 6.70032C49.117 -4.69968 50.217 2.89992 57.117 6.29992C59.417 7.39992 62.417 8.00002 64.617 8.90002C61.317 8.60002 58.917 7.90022 55.517 8.60022C55.317 9.00022 54.317 11.9002 54.317 12.1002C56.617 13.9002 70.217 13.4002 74.717 14.1002C76.317 14.3002 77.917 14.5999 79.517 14.7999C81.317 15.0999 81.317 14.9999 82.617 17.2999C83.317 18.4999 83.517 19.9 84.017 21.4C84.517 23.1 85.217 24.1001 85.817 25.5001L93.117 34.1002C93.817 33.6002 93.117 33.9002 93.817 33.6002C94.517 33.2002 94.717 33.2999 95.717 33.2999C97.217 33.3999 97.917 33.5999 98.717 34.2999C101.417 36.3999 101.717 35.6001 105.517 36.0001C102.817 37.7001 100.017 37.8999 97.717 39.2999C95.117 40.7999 93.717 43.1999 90.917 44.2999C90.517 43.6999 90.917 43.6001 90.217 43.0001C86.517 43.8001 85.617 45.0999 80.617 45.2999C74.617 45.5999 75.717 47.4 73.017 49.9C67.417 54.8 64.417 53.3 62.017 56.9C61.317 57.9 61.017 59.3003 59.717 59.7003H59.417C60.017 60.9003 59.417 61.1003 59.117 62.7003L59.717 62.9C60.717 63.1 62.217 62.2999 62.617 66.7999C62.817 68.7999 62.717 72.7 62.617 74.9C58.617 60.9 45.117 52.1002 36.217 41.6002C38.217 41.9002 40.117 42 42.117 42.4L43.517 42.7003C43.617 42.7003 43.717 42.7999 43.717 42.7999C49.917 47.4999 54.717 53.1999 58.917 59.2999L59.617 60.0001C54.817 53.9001 49.717 48 43.817 42.4C42.717 42.2 41.517 42.1 40.417 41.9L35.017 40.6002C32.517 40.0002 33.217 40.6001 33.617 41.0001L37.117 44.1002C42.917 49.3002 59.617 64.4 58.917 69.9ZM85.917 25.7999C85.017 26.3999 83.217 25.9999 80.017 26.7999C81.917 27.3999 82.217 27.1003 83.417 28.2003C82.717 28.5003 77.517 29.3 75.817 29.9C72.917 31 71.517 31.8999 67.817 31.2999C67.817 26.8999 69.217 28.1999 72.117 27.2999C72.817 27.0999 72.417 27.2001 72.817 27.0001C70.717 27.1001 70.317 27.8001 67.917 27.5001L67.817 25.7003L66.017 25.2003L66.217 23.0001C68.817 21.7001 75.817 21.1002 78.117 22.1002C79.217 22.6002 78.817 22.7001 79.817 23.0001C81.617 23.5001 82.517 22.7003 83.817 24.2003L78.517 25.0001C81.417 25.1001 83.617 24.9999 85.917 25.7999ZM56.117 18.4C55.917 17.4 56.117 15.6 56.817 14.9C58.417 13.5 66.517 14.3001 68.417 14.5001C79.717 15.7001 77.217 16.7001 82.317 18.0001C81.217 19.0001 78.717 18.9999 77.117 19.2999C75.417 19.5999 74.017 20.4 72.417 20.9C70.417 21.6 69.417 20.6001 67.817 21.0001C65.717 21.5001 65.217 21.9003 62.717 21.7003C62.717 17.0003 65.017 18.6001 73.617 17.5001C67.417 16.9001 61.817 19.6 56.117 18.4ZM67.517 32.9C70.417 31.1 76.917 30.6001 80.317 32.5001C81.917 33.4001 83.017 32.7001 84.517 33.5001C85.317 33.9001 84.717 33.6001 85.117 34.0001C84.517 34.2001 84.217 34.1999 83.717 34.2999L81.017 35.4C80.417 35.6 78.417 37.1003 77.117 37.7003C69.017 41.8003 70.117 39.8001 68.717 38.0001C70.117 36.0001 69.417 38.5003 70.417 35.2003L67.417 35.4L67.517 32.9ZM62.517 46.4C63.717 45.9 65.117 45.1003 66.717 44.7003C74.517 42.6003 76.817 40.8001 79.717 40.0001C79.217 43.1001 67.417 49.3002 63.817 49.1002C63.217 48.3002 62.717 47.6 62.517 46.4ZM88.017 17.5001L93.817 14.4C94.817 13.9 97.117 13.1 98.217 13.4C98.617 13.6 98.317 14.2001 98.017 14.5001C97.617 14.9001 96.317 14.8 95.817 14.9C92.217 15.4 90.517 16.9 87.717 17.9L88.017 17.5001ZM88.017 19.0001L87.517 18.7999L92.117 16.4C93.117 15.9 95.417 15.1 96.517 15.4C96.917 15.6 96.617 16.2001 96.317 16.5001C95.917 16.9001 94.617 16.8 94.117 16.9C91.517 17.2 89.817 18.0001 88.017 19.0001Z" fill="#F2F2F2"/>
<path d="M159.617 36.3999C159.617 32.1999 157.017 29.2998 153.217 29.2998C149.417 29.2998 146.817 32.1999 146.817 36.3999C146.817 40.5999 149.317 43.5 153.117 43.5C157.017 43.4 159.617 40.5999 159.617 36.3999ZM153.217 42.2998C150.117 42.2998 148.117 39.8998 148.117 36.2998C148.117 32.7998 150.117 30.3999 153.217 30.3999C156.317 30.3999 158.317 32.7999 158.317 36.3999C158.317 39.9999 156.317 42.2998 153.217 42.2998Z" fill="#F2F2F2"/>
<path d="M170.217 38.2998C170.217 35.1998 168.417 33.2998 165.817 33.2998C164.217 33.2998 162.817 34.2 162.217 35.5H162.117C162.517 32.5 163.617 31.0999 165.817 30.8999L167.217 30.7998C168.917 30.6998 169.617 30.4002 169.817 29.2002H168.517C168.317 29.5002 168.117 29.7002 167.117 29.7002L166.217 29.7998C164.317 29.8998 163.117 30.3998 162.317 31.7998C161.317 33.2998 161.117 35.6 161.117 37.5C161.117 40.5 162.117 43.3999 165.617 43.3999C168.417 43.3999 170.217 41.3998 170.217 38.2998ZM162.317 38.2998C162.317 35.7998 163.717 34.2998 165.717 34.2998C167.617 34.2998 169.017 35.8998 169.017 38.2998C169.017 40.6998 167.617 42.3999 165.717 42.3999C163.717 42.3999 162.317 40.6998 162.317 38.2998Z" fill="#F2F2F2"/>
<path d="M184.817 46.2002H186.017V42.1001H184.717V33.3999H183.517V42.1001H178.917V33.3999H177.717V42.1001H173.117V33.3999H171.917V43.1001H184.817V46.2002Z" fill="#F2F2F2"/>
<path d="M191.317 43.3999C193.617 43.3999 195.117 41.9999 195.517 39.8999H194.317C193.917 41.5999 192.917 42.5 191.317 42.5C188.917 42.5 188.017 40.6 188.017 38.5H195.517V38.2002C195.517 35.5002 194.117 33.1001 191.217 33.1001C188.617 33.1001 186.717 35.2999 186.717 38.3999C186.817 41.4999 188.617 43.3999 191.317 43.3999ZM191.217 34.1001C193.017 34.1001 194.217 35.4001 194.317 37.6001H188.017C188.317 35.7001 189.117 34.1001 191.217 34.1001Z" fill="#F2F2F2"/>
<path d="M198.417 41.2998C199.117 42.6998 200.317 43.3999 201.917 43.3999C204.517 43.3999 206.317 41.3002 206.317 38.2002C206.317 35.1002 204.617 33 201.917 33C200.317 33 199.117 33.7002 198.417 35.2002V33.2998H197.317V46.7002H198.517V41.2998H198.417ZM201.717 34.1001C203.817 34.1001 205.017 35.7998 205.017 38.2998C205.017 40.7998 203.717 42.3999 201.717 42.3999C199.617 42.3999 198.417 40.8002 198.417 38.2002C198.417 35.6002 199.617 34.1001 201.717 34.1001Z" fill="#F2F2F2"/>
<path d="M212.317 43.3999C215.117 43.3999 216.917 41.3998 216.917 38.2998C216.917 35.0998 215.117 33.1001 212.317 33.1001C209.517 33.1001 207.617 35.0998 207.617 38.2998C207.617 41.3998 209.417 43.3999 212.317 43.3999ZM212.317 34.1001C214.417 34.1001 215.717 35.6998 215.717 38.2998C215.717 40.8998 214.417 42.5 212.317 42.5C210.217 42.5 208.817 40.8998 208.817 38.2998C208.817 35.6998 210.217 34.1001 212.317 34.1001Z" fill="#F2F2F2"/>
<path d="M222.717 43.3999C225.117 43.3999 226.517 41.8001 226.817 39.6001H225.617C225.417 41.4001 224.317 42.3999 222.617 42.3999C220.617 42.3999 219.417 40.8002 219.417 38.2002C219.417 35.7002 220.717 34 222.717 34C224.217 34 225.217 34.7999 225.517 36.3999H226.717C226.417 34.2999 225.017 33 222.717 33C219.917 33 218.117 35.0998 218.117 38.2998C218.217 41.3998 220.017 43.3999 222.717 43.3999Z" fill="#F2F2F2"/>
<path d="M235.517 39.6001C235.317 41.4001 234.217 42.3999 232.517 42.3999C230.517 42.3999 229.317 40.8002 229.317 38.2002C229.317 35.7002 230.617 34 232.617 34C234.117 34 235.117 34.7999 235.417 36.3999H236.617C236.317 34.2999 234.917 33 232.617 33C229.817 33 228.017 35.0998 228.017 38.2998C228.017 41.3998 229.817 43.3999 232.517 43.3999C234.917 43.3999 236.317 41.8001 236.617 39.6001H235.517V39.6001Z" fill="#F2F2F2"/>
<path d="M245.217 34.7998V43.1001H246.417V33.3999H244.917L239.617 41.7002V33.3999H238.417V43.1001H239.917L245.217 34.7998Z" fill="#F2F2F2"/>
<path d="M252.517 32C254.117 32 255.017 31.1 255.317 29.5H254.617C254.417 30.5 253.717 31.1001 252.617 31.1001C251.517 31.1001 250.817 30.5 250.617 29.5H249.917C250.117 31.2 251.017 32 252.517 32Z" fill="#F2F2F2"/>
<path d="M255.417 34.7998V43.1001H256.617V33.3999H255.117L249.817 41.7002V33.3999H248.617V43.1001H250.117L255.417 34.7998Z" fill="#F2F2F2"/>
<path d="M267.017 39.6001H265.817C265.617 41.4001 264.517 42.3999 262.817 42.3999C260.817 42.3999 259.617 40.8002 259.617 38.2002C259.617 35.7002 260.917 34 262.917 34C264.417 34 265.417 34.7999 265.717 36.3999H266.917C266.617 34.2999 265.217 33 262.917 33C260.117 33 258.317 35.0998 258.317 38.2998C258.317 41.3998 260.117 43.3999 262.817 43.3999C265.217 43.3999 266.717 41.9001 267.017 39.6001Z" fill="#F2F2F2"/>
<path d="M275.717 43.1001H277.217L272.717 37.2002L276.917 33.3999H275.317L269.917 38.3999V33.3999H268.717V43.1001H269.917V39.7998L271.917 38L275.717 43.1001Z" fill="#F2F2F2"/>
<path d="M284.117 37.1001C283.617 37.4001 282.817 37.5001 281.217 37.6001C278.817 37.8001 277.617 38.8001 277.617 40.6001C277.617 42.3001 278.817 43.2998 280.817 43.2998C282.517 43.2998 283.717 42.5998 284.517 41.2998C284.517 42.1998 284.617 43.1001 285.817 43.1001C286.117 43.1001 286.417 43.0999 286.817 42.8999V42C286.617 42.1 286.517 42.1001 286.317 42.1001C285.617 42.1001 285.717 41.7001 285.717 41.1001V35.7998C285.717 33.9998 284.317 33 282.117 33C279.717 33 278.317 34.1998 278.217 36.2998H279.317C279.517 34.6998 280.317 34 282.017 34C283.617 34 284.517 34.5001 284.517 36.1001C284.517 36.7001 284.417 36.9001 284.117 37.1001ZM284.517 39.3999C284.517 41.2999 283.017 42.3999 281.217 42.3999C279.817 42.3999 279.017 41.7 279.017 40.5C279.017 38.9 280.717 38.5999 281.917 38.3999C283.217 38.1999 284.217 38.1002 284.617 37.7002V39.3999H284.517Z" fill="#F2F2F2"/>
<path d="M288.517 43.1001L291.917 39H294.317V43.1001H295.517V33.2998H290.617C288.817 33.2998 287.617 34.4001 287.617 36.1001C287.617 37.8001 288.817 38.7999 290.517 38.8999L286.917 43H288.517V43.1001ZM288.917 36.2002C288.917 35.1002 289.617 34.3999 291.017 34.3999H294.517V38H291.017C289.617 38 288.917 37.3002 288.917 36.2002Z" fill="#F2F2F2"/>
<path d="M154.917 58.2998V53C154.917 51.2 153.517 50.2002 151.317 50.2002C148.917 50.2002 147.517 51.4 147.417 53.5H148.517C148.717 51.9 149.517 51.2002 151.217 51.2002C152.817 51.2002 153.717 51.6998 153.717 53.2998C153.717 53.7998 153.617 54.1002 153.417 54.2002C152.917 54.5002 152.117 54.6002 150.517 54.7002C148.117 54.9002 146.917 55.9002 146.917 57.7002C146.917 59.4002 148.117 60.3999 150.117 60.3999C151.817 60.3999 153.017 59.6999 153.817 58.3999C153.817 59.2999 153.917 60.2002 155.117 60.2002C155.417 60.2002 155.717 60.2 156.117 60V59.1001C155.917 59.2001 155.817 59.2002 155.617 59.2002C154.817 59.3002 154.917 58.8998 154.917 58.2998ZM153.717 56.5C153.717 58.4 152.217 59.5 150.417 59.5C149.017 59.5 148.217 58.8001 148.217 57.6001C148.217 56.0001 149.917 55.7 151.117 55.5C152.417 55.3 153.417 55.1998 153.817 54.7998V56.5H153.717Z" fill="#F2F2F2"/>
<path d="M161.317 59.5C159.317 59.5 158.117 57.8998 158.117 55.2998C158.117 52.7998 159.417 51.1001 161.417 51.1001C162.917 51.1001 163.917 51.9 164.217 53.5H165.417C165.117 51.4 163.717 50.1001 161.417 50.1001C158.617 50.1001 156.817 52.1999 156.817 55.3999C156.817 58.4999 158.617 60.5 161.317 60.5C163.717 60.5 165.117 58.9002 165.417 56.7002H164.217C164.017 58.5002 162.917 59.5 161.317 59.5Z" fill="#F2F2F2"/>
<path d="M171.117 59.5C169.117 59.5 167.917 57.8998 167.917 55.2998C167.917 52.7998 169.217 51.1001 171.217 51.1001C172.717 51.1001 173.717 51.9 174.017 53.5H175.217C174.917 51.4 173.517 50.1001 171.217 50.1001C168.417 50.1001 166.617 52.1999 166.617 55.3999C166.617 58.4999 168.417 60.5 171.117 60.5C173.517 60.5 174.917 58.9002 175.217 56.7002H174.017C173.917 58.5002 172.817 59.5 171.117 59.5Z" fill="#F2F2F2"/>
<path d="M181.117 50.2002C178.317 50.2002 176.417 52.1999 176.417 55.3999C176.417 58.5999 178.217 60.6001 181.117 60.6001C183.917 60.6001 185.717 58.6 185.717 55.5C185.717 52.2 184.017 50.2002 181.117 50.2002ZM181.217 59.5C179.117 59.5 177.717 57.8998 177.717 55.2998C177.717 52.7998 179.017 51.1001 181.117 51.1001C183.217 51.1001 184.517 52.6998 184.517 55.2998C184.517 57.8998 183.217 59.5 181.217 59.5Z" fill="#F2F2F2"/>
<path d="M195.417 50.5H194.217V59.2002H188.717V50.5H187.517V60.2002H195.617V63.3999H196.817V59.2002H195.417V50.5Z" fill="#F2F2F2"/>
<path d="M204.917 51.8999V60.2002H206.117V50.5H204.617L199.317 58.7998V50.5H198.117V60.2002H199.617L204.917 51.8999Z" fill="#F2F2F2"/>
<path d="M209.417 53.5C209.617 51.9 210.417 51.2002 212.117 51.2002C213.717 51.2002 214.617 51.6998 214.617 53.2998C214.617 53.7998 214.517 54.1002 214.317 54.2002C213.817 54.5002 213.017 54.6002 211.417 54.7002C209.017 54.9002 207.817 55.9002 207.817 57.7002C207.817 59.4002 209.017 60.3999 211.017 60.3999C212.717 60.3999 213.917 59.6999 214.717 58.3999C214.717 59.2999 214.817 60.2002 216.017 60.2002C216.317 60.2002 216.617 60.2 216.917 60V59.1001C216.717 59.2001 216.617 59.2002 216.417 59.2002C215.717 59.2002 215.817 58.8002 215.817 58.2002V52.8999C215.817 51.0999 214.417 50.1001 212.217 50.1001C209.817 50.1001 208.417 51.2999 208.317 53.3999H209.417V53.5ZM214.617 56.5C214.617 58.4 213.117 59.5 211.317 59.5C209.917 59.5 209.117 58.8001 209.117 57.6001C209.117 56.0001 210.817 55.7 212.017 55.5C213.317 55.3 214.317 55.1998 214.717 54.7998V56.5H214.617Z" fill="#F2F2F2"/>
<path d="M226.217 63.3999H227.417V59.2002H226.117V50.5H224.917V59.2002H219.317V50.5H218.117V60.2002H226.217V63.3999Z" fill="#F2F2F2"/>
<path d="M235.517 51.8999V60.2002H236.717V50.5H235.217L229.917 58.7998V50.5H228.717V60.2002H230.217L235.517 51.8999Z" fill="#F2F2F2"/>
<path d="M239.417 60.2002L242.817 56.1001H245.217V60.2002H246.417V50.3999H241.517C239.717 50.3999 238.517 51.5002 238.517 53.2002C238.517 54.9002 239.717 55.9 241.417 56L237.817 60.1001H239.417V60.2002ZM239.817 53.2998C239.817 52.1998 240.517 51.5 241.917 51.5H245.417V55.1001H241.917C240.517 55.1001 239.817 54.4998 239.817 53.2998Z" fill="#F2F2F2"/>
<path d="M255.217 50.5H254.017V60.2002H262.117V63.3999H263.317V59.2002H262.017V50.5H260.817V59.2002H255.217V50.5Z" fill="#F2F2F2"/>
<path d="M268.617 50.2002C266.017 50.2002 264.117 52.4 264.117 55.5C264.117 58.6 265.917 60.6001 268.617 60.6001C270.917 60.6001 272.417 59.2001 272.817 57.1001H271.617C271.217 58.8001 270.217 59.7002 268.617 59.7002C266.217 59.7002 265.317 57.8002 265.317 55.7002H272.817V55.3999C272.917 52.5999 271.517 50.2002 268.617 50.2002ZM265.417 54.7002C265.617 52.9002 266.517 51.2002 268.617 51.2002C270.417 51.2002 271.617 52.5002 271.717 54.7002H265.417Z" fill="#F2F2F2"/>
<path d="M281.317 54.6001H275.717V50.5H274.517V60.2002H275.717V55.6001H281.317V60.2002H282.517V50.5H281.317V54.6001Z" fill="#F2F2F2"/>
<path d="M283.617 51.5H287.217V60.2002H288.417V51.5H292.117V50.5H283.617V51.5Z" fill="#F2F2F2"/>
<path d="M297.817 50.2002C296.217 50.2002 295.017 50.8999 294.317 52.3999V50.5H293.217V63.8999H294.417V58.5C295.117 59.9 296.317 60.6001 297.917 60.6001C300.517 60.6001 302.317 58.4999 302.317 55.3999C302.217 52.2999 300.517 50.2002 297.817 50.2002ZM297.717 59.5C295.617 59.5 294.417 57.8998 294.417 55.2998C294.417 52.6998 295.717 51.1001 297.717 51.1001C299.717 51.1001 301.017 52.7998 301.017 55.2998C301.017 57.8998 299.717 59.5 297.717 59.5Z" fill="#F2F2F2"/>
<path d="M308.217 50.2002C305.417 50.2002 303.517 52.1999 303.517 55.3999C303.517 58.5999 305.317 60.6001 308.217 60.6001C311.017 60.6001 312.817 58.6 312.817 55.5C312.817 52.2 311.117 50.2002 308.217 50.2002ZM308.317 59.5C306.217 59.5 304.817 57.8998 304.817 55.2998C304.817 52.7998 306.117 51.1001 308.217 51.1001C310.317 51.1001 311.617 52.6998 311.617 55.2998C311.717 57.8998 310.317 59.5 308.317 59.5Z" fill="#F2F2F2"/>
<path d="M320.717 55.1001C321.817 54.8001 322.417 53.9998 322.417 52.7998C322.417 51.2998 321.317 50.5 319.317 50.5H314.717V60.2998H319.317C321.617 60.2998 322.817 59.3001 322.817 57.6001C322.717 56.1001 322.017 55.3001 320.717 55.1001ZM315.817 51.5H319.017C320.417 51.5 321.117 52.1001 321.117 53.1001C321.117 54.1001 320.417 54.7002 319.017 54.7002H315.817V51.5ZM319.117 59.2002H315.917V55.6001H319.117C320.717 55.6001 321.617 56.1999 321.617 57.3999C321.517 58.5999 320.817 59.2002 319.117 59.2002Z" fill="#F2F2F2"/>
<path d="M155.317 67.6001H153.717L148.317 72.6001V67.6001H147.117V77.3999H148.317V74.1001L150.317 72.2002L154.017 77.3999H155.517L151.117 71.3999L155.317 67.6001Z" fill="#F2F2F2"/>
<path d="M164.017 75.5V70.2002C164.017 68.4002 162.617 67.3999 160.417 67.3999C158.017 67.3999 156.617 68.6002 156.517 70.7002H157.617C157.817 69.1002 158.617 68.3999 160.317 68.3999C161.917 68.3999 162.817 68.9 162.817 70.5C162.817 71 162.717 71.2999 162.517 71.3999C162.017 71.6999 161.217 71.7999 159.617 71.8999C157.217 72.0999 156.017 73.0999 156.017 74.8999C156.017 76.5999 157.217 77.6001 159.217 77.6001C160.917 77.6001 162.117 76.9001 162.917 75.6001C162.917 76.5001 163.017 77.3999 164.217 77.3999C164.517 77.3999 164.817 77.4002 165.217 77.2002V76.2998C165.017 76.3998 164.917 76.3999 164.717 76.3999C164.017 76.4999 164.017 76.1 164.017 75.5ZM162.917 73.6001C162.917 75.5001 161.417 76.6001 159.617 76.6001C158.217 76.6001 157.417 75.9002 157.417 74.7002C157.417 73.1002 159.117 72.8001 160.317 72.6001C161.617 72.4001 162.617 72.2999 163.017 71.8999V73.6001H162.917Z" fill="#F2F2F2"/>
<path d="M171.117 67.2998C169.517 67.2998 168.317 68 167.617 69.5V67.6001H166.517V81H167.717V75.6001C168.417 77.0001 169.617 77.7002 171.217 77.7002C173.817 77.7002 175.617 75.6 175.617 72.5C175.517 69.4 173.717 67.2998 171.117 67.2998ZM171.017 76.7002C168.917 76.7002 167.717 75.1 167.717 72.5C167.717 69.9 169.017 68.2998 171.017 68.2998C173.117 68.2998 174.317 70 174.317 72.5C174.317 75 173.017 76.7002 171.017 76.7002Z" fill="#F2F2F2"/>
<path d="M182.217 71.3999H178.517V67.6001H177.317V77.3999H182.217C184.117 77.3999 185.317 76.2999 185.317 74.3999C185.317 72.4999 184.117 71.3999 182.217 71.3999ZM181.917 76.3999H178.517V72.5H181.917C183.317 72.5 184.117 73.2 184.117 74.5C184.117 75.7 183.317 76.3999 181.917 76.3999Z" fill="#F2F2F2"/>
<path d="M190.817 67.2998C188.217 67.2998 186.317 69.5001 186.317 72.6001C186.317 75.7001 188.117 77.7002 190.817 77.7002C193.117 77.7002 194.617 76.3002 195.017 74.2002H193.817C193.417 75.9002 192.417 76.7998 190.817 76.7998C188.417 76.7998 187.517 74.8998 187.517 72.7998H195.017V72.5C195.117 69.7 193.717 67.2998 190.817 67.2998ZM187.517 71.7998C187.717 69.9998 188.617 68.2998 190.717 68.2998C192.517 68.2998 193.717 69.5998 193.817 71.7998H187.517Z" fill="#F2F2F2"/>
<path d="M201.317 67.2998C199.717 67.2998 198.517 68 197.817 69.5V67.6001H196.717V81H197.917V75.6001C198.617 77.0001 199.817 77.7002 201.417 77.7002C204.017 77.7002 205.817 75.6 205.817 72.5C205.817 69.4 204.017 67.2998 201.317 67.2998ZM201.217 76.7002C199.117 76.7002 197.917 75.1 197.917 72.5C197.917 69.9 199.217 68.2998 201.217 68.2998C203.317 68.2998 204.517 70 204.517 72.5C204.517 75 203.217 76.7002 201.217 76.7002Z" fill="#F2F2F2"/>
<path d="M211.917 71.3999H208.717V67.6001H207.517V77.3999H211.917C213.817 77.3999 215.017 76.2999 215.017 74.3999C215.017 72.4999 213.817 71.3999 211.917 71.3999ZM211.617 76.3999H208.717V72.5H211.617C213.017 72.5 213.817 73.2 213.817 74.5C213.817 75.7 213.017 76.3999 211.617 76.3999Z" fill="#F2F2F2"/>
<path d="M218.117 67.6001H216.917V77.3999H218.117V67.6001Z" fill="#F2F2F2"/>
</svg>
